<svg width="160" height="64" viewBox="0 0 160 64" fill="none" xmlns="http://www.w3.org/2000/svg">
<rect x="0.369141" width="159.034" height="64" rx="8" fill="white" fill-opacity="0.15"/>
<path d="M107.671 29.7612V32.6845H105.839V34.6016H107.671V41.1155C107.671 43.3398 108.678 44.2295 111.209 44.2295C111.654 44.2295 112.077 44.1765 112.448 44.113V42.217C112.13 42.2488 111.929 42.27 111.58 42.27C110.446 42.27 109.949 41.7404 109.949 40.533V34.6016H112.448V32.6845H109.949V29.7612H107.671Z" fill="white"/>
<path d="M118.897 44.3883C122.265 44.3883 124.33 42.1323 124.33 38.3934C124.33 34.6757 122.254 32.4091 118.897 32.4091C115.529 32.4091 113.453 34.6757 113.453 38.3934C113.453 42.1323 115.518 44.3883 118.897 44.3883ZM118.897 42.3653C116.916 42.3653 115.804 40.9143 115.804 38.3934C115.804 35.8938 116.916 34.4321 118.897 34.4321C120.867 34.4321 121.99 35.8938 121.99 38.3934C121.99 40.9037 120.867 42.3653 118.897 42.3653Z" fill="white"/>
<path d="M126.098 44.1659H128.375V37.3554C128.375 35.7349 129.593 34.644 131.319 34.644C131.722 34.644 132.4 34.7181 132.59 34.7817V32.5362C132.347 32.4727 131.912 32.4409 131.573 32.4409C130.069 32.4409 128.788 33.267 128.459 34.4004H128.29V32.6315H126.098V44.1659Z" fill="white"/>
<path d="M138.245 34.3474C139.929 34.3474 141.03 35.5231 141.083 37.3343H135.258C135.385 35.5337 136.56 34.3474 138.245 34.3474ZM141.072 41.0519C140.649 41.9522 139.706 42.4501 138.329 42.4501C136.507 42.4501 135.332 41.1685 135.258 39.1454V39.0183H143.403V38.224C143.403 34.6016 141.464 32.4091 138.255 32.4091C135.003 32.4091 132.938 34.7499 132.938 38.4358C132.938 42.1217 134.961 44.3883 138.266 44.3883C140.903 44.3883 142.746 43.1173 143.265 41.0519H141.072Z" fill="white"/>
<path d="M92.7377 39.9064C92.9133 42.7388 95.2736 44.5501 98.7865 44.5501C102.541 44.5501 104.89 42.6509 104.89 39.621C104.89 37.2388 103.551 35.9214 100.302 35.164L98.556 34.7358C96.4921 34.2528 95.6578 33.6051 95.6578 32.4743C95.6578 31.0472 96.9532 30.1141 98.8963 30.1141C100.741 30.1141 102.014 31.0252 102.245 32.4853H104.638C104.495 29.8177 102.146 27.9404 98.9293 27.9404C95.4712 27.9404 93.1658 29.8177 93.1658 32.639C93.1658 34.9663 94.4722 36.3496 97.3374 37.0192L99.3793 37.5132C101.476 38.0073 102.398 38.7318 102.398 39.9394C102.398 41.3446 100.949 42.3655 98.9732 42.3655C96.8544 42.3655 95.3834 41.4104 95.1748 39.9064H92.7377Z" fill="white"/>
<path d="M69.148 32.4409C67.5804 32.4409 66.2247 33.2247 65.5256 34.538H65.3562V32.6315H63.1637V48.0001H65.4409V42.4183H65.621C66.2247 43.6363 67.5275 44.3566 69.1692 44.3566C72.0819 44.3566 73.9355 42.0582 73.9355 38.3934C73.9355 34.7287 72.0819 32.4409 69.148 32.4409ZM68.5019 42.3124C66.5954 42.3124 65.3985 40.8083 65.3985 38.404C65.3985 35.9891 66.5954 34.4851 68.5125 34.4851C70.4402 34.4851 71.5947 35.9573 71.5947 38.3934C71.5947 40.8401 70.4402 42.3124 68.5019 42.3124Z" fill="white"/>
<path d="M81.9038 32.4409C80.3362 32.4409 78.9805 33.2247 78.2815 34.538H78.112V32.6315H75.9195V48.0001H78.1967V42.4183H78.3768C78.9805 43.6363 80.2833 44.3566 81.925 44.3566C84.8377 44.3566 86.6913 42.0582 86.6913 38.3934C86.6913 34.7287 84.8377 32.4409 81.9038 32.4409ZM81.2577 42.3124C79.3512 42.3124 78.1544 40.8083 78.1544 38.404C78.1544 35.9891 79.3512 34.4851 81.2683 34.4851C83.196 34.4851 84.3505 35.9573 84.3505 38.3934C84.3505 40.8401 83.196 42.3124 81.2577 42.3124Z" fill="white"/>
<path d="M59.078 44.1659H61.6907L55.9712 28.3247H53.3255L47.606 44.1659H50.1309L51.591 39.9613H57.6289L59.078 44.1659ZM54.5221 31.2009H54.7087L57.0031 37.8975H52.2167L54.5221 31.2009Z" fill="white"/>
<path d="M49.1357 16.376V24.0179H51.8949C54.1721 24.0179 55.4908 22.6145 55.4908 20.1731C55.4908 17.7688 54.1615 16.376 51.8949 16.376H49.1357ZM50.322 17.4564H51.7625C53.3459 17.4564 54.2833 18.4626 54.2833 20.189C54.2833 21.942 53.3618 22.9376 51.7625 22.9376H50.322V17.4564Z" fill="white"/>
<path d="M59.5294 24.1291C61.2135 24.1291 62.2462 23.0011 62.2462 21.1317C62.2462 19.2728 61.2082 18.1395 59.5294 18.1395C57.8453 18.1395 56.8073 19.2728 56.8073 21.1317C56.8073 23.0011 57.84 24.1291 59.5294 24.1291ZM59.5294 23.1176C58.5391 23.1176 57.983 22.3921 57.983 21.1317C57.983 19.8819 58.5391 19.151 59.5294 19.151C60.5144 19.151 61.0758 19.8819 61.0758 21.1317C61.0758 22.3868 60.5144 23.1176 59.5294 23.1176Z" fill="white"/>
<path d="M71.0405 18.2507H69.9019L68.8745 22.6516H68.7844L67.5982 18.2507H66.5072L65.3209 22.6516H65.2362L64.2035 18.2507H63.049L64.6378 24.0179H65.8082L66.9944 19.7706H67.0845L68.276 24.0179H69.457L71.0405 18.2507Z" fill="white"/>
<path d="M72.3517 24.0179H73.4903V20.6445C73.4903 19.7442 74.0252 19.1828 74.8673 19.1828C75.7093 19.1828 76.1118 19.6435 76.1118 20.5703V24.0179H77.2504V20.2843C77.2504 18.9127 76.5407 18.1395 75.2538 18.1395C74.3853 18.1395 73.8134 18.5261 73.5327 19.1669H73.448V18.2507H72.3517V24.0179Z" fill="white"/>
<path d="M79.0436 24.0179H80.1822V16H79.0436V24.0179Z" fill="white"/>
<path d="M84.4644 24.1291C86.1485 24.1291 87.1812 23.0011 87.1812 21.1317C87.1812 19.2728 86.1432 18.1395 84.4644 18.1395C82.7803 18.1395 81.7423 19.2728 81.7423 21.1317C81.7423 23.0011 82.775 24.1291 84.4644 24.1291ZM84.4644 23.1176C83.4741 23.1176 82.918 22.3921 82.918 21.1317C82.918 19.8819 83.4741 19.151 84.4644 19.151C85.4494 19.151 86.0108 19.8819 86.0108 21.1317C86.0108 22.3868 85.4494 23.1176 84.4644 23.1176Z" fill="white"/>
<path d="M90.5737 23.1547C89.9541 23.1547 89.5039 22.8528 89.5039 22.3338C89.5039 21.8254 89.8641 21.5554 90.6584 21.5024L92.0671 21.4124V21.8943C92.0671 22.6092 91.4316 23.1547 90.5737 23.1547ZM90.2824 24.1133C91.0397 24.1133 91.6699 23.7849 92.0142 23.2077H92.1042V24.0179H93.2004V20.0778C93.2004 18.8598 92.3849 18.1395 90.9391 18.1395C89.631 18.1395 88.699 18.775 88.5825 19.7654H89.684C89.8111 19.3576 90.2507 19.1246 90.8862 19.1246C91.6646 19.1246 92.0671 19.4688 92.0671 20.0778V20.5756L90.5049 20.6656C89.1332 20.7504 88.36 21.3488 88.36 22.3868C88.36 23.4407 89.1703 24.1133 90.2824 24.1133Z" fill="white"/>
<path d="M97.0643 24.1133C97.8587 24.1133 98.5313 23.7372 98.8755 23.107H98.9655V24.0179H100.056V16H98.9179V19.1669H98.8331C98.5207 18.5314 97.8534 18.1554 97.0643 18.1554C95.6079 18.1554 94.6706 19.3099 94.6706 21.1317C94.6706 22.9588 95.5974 24.1133 97.0643 24.1133ZM97.3874 19.1775C98.3406 19.1775 98.939 19.9348 98.939 21.137C98.939 22.3444 98.3459 23.0912 97.3874 23.0912C96.4235 23.0912 95.8463 22.355 95.8463 21.1317C95.8463 19.9189 96.4288 19.1775 97.3874 19.1775Z" fill="white"/>
<path d="M107.44 24.1291C109.124 24.1291 110.157 23.0011 110.157 21.1317C110.157 19.2728 109.119 18.1395 107.44 18.1395C105.756 18.1395 104.718 19.2728 104.718 21.1317C104.718 23.0011 105.751 24.1291 107.44 24.1291ZM107.44 23.1176C106.45 23.1176 105.894 22.3921 105.894 21.1317C105.894 19.8819 106.45 19.151 107.44 19.151C108.425 19.151 108.986 19.8819 108.986 21.1317C108.986 22.3868 108.425 23.1176 107.44 23.1176Z" fill="white"/>
<path d="M111.664 24.0179H112.803V20.6445C112.803 19.7442 113.337 19.1828 114.179 19.1828C115.021 19.1828 115.424 19.6435 115.424 20.5703V24.0179H116.563V20.2843C116.563 18.9127 115.853 18.1395 114.566 18.1395C113.698 18.1395 113.126 18.5261 112.845 19.1669H112.76V18.2507H111.664V24.0179Z" fill="white"/>
<path d="M121.807 16.8156V18.2772H120.89V19.2358H121.807V22.4927C121.807 23.6048 122.31 24.0497 123.575 24.0497C123.798 24.0497 124.01 24.0232 124.195 23.9914V23.0435C124.036 23.0594 123.935 23.07 123.761 23.07C123.194 23.07 122.945 22.8052 122.945 22.2014V19.2358H124.195V18.2772H122.945V16.8156H121.807Z" fill="white"/>
<path d="M125.723 24.0179H126.862V20.6498C126.862 19.7759 127.381 19.1881 128.313 19.1881C129.118 19.1881 129.547 19.6541 129.547 20.5756V24.0179H130.686V20.2949C130.686 18.9233 129.928 18.1448 128.7 18.1448C127.831 18.1448 127.222 18.5314 126.941 19.1775H126.851V16H125.723V24.0179Z" fill="white"/>
<path d="M134.793 19.1087C135.635 19.1087 136.186 19.6965 136.212 20.6021H133.3C133.363 19.7018 133.951 19.1087 134.793 19.1087ZM136.207 22.4609C135.995 22.9111 135.524 23.16 134.835 23.16C133.925 23.16 133.337 22.5192 133.3 21.5077V21.4441H137.372V21.047C137.372 19.2358 136.403 18.1395 134.798 18.1395C133.173 18.1395 132.14 19.3099 132.14 21.1529C132.14 22.9958 133.151 24.1291 134.804 24.1291C136.122 24.1291 137.044 23.4936 137.303 22.4609H136.207Z" fill="white"/>
<path d="M35.2504 31.1646C35.278 29.0197 36.4299 26.9901 38.2573 25.8666C37.1045 24.2202 35.1736 23.1763 33.1646 23.1134C31.0219 22.8885 28.9447 24.3956 27.8528 24.3956C26.7398 24.3956 25.0587 23.1358 23.2484 23.173C20.8888 23.2493 18.689 24.5908 17.541 26.6537C15.0732 30.9263 16.914 37.2055 19.2779 40.6591C20.4606 42.3503 21.8428 44.2393 23.6515 44.1723C25.4214 44.0989 26.0824 43.0437 28.2188 43.0437C30.3353 43.0437 30.9555 44.1723 32.8009 44.1297C34.7 44.0989 35.8966 42.4311 37.0378 40.7239C37.8876 39.5189 38.5415 38.1871 38.9753 36.7779C36.7434 35.8339 35.253 33.5879 35.2504 31.1646Z" fill="white"/>
<path d="M31.7648 20.8422C32.8003 19.5991 33.3104 18.0013 33.1869 16.3882C31.6049 16.5543 30.1436 17.3104 29.0941 18.5058C28.0678 19.6738 27.5337 21.2434 27.6347 22.7949C29.2173 22.8112 30.7731 22.0756 31.7648 20.8422Z" fill="white"/>
</svg>
