<svg width="168" height="40" viewBox="0 0 168 40" fill="none" xmlns="http://www.w3.org/2000/svg">
<path d="M34.7936 31.0051H17.6719V21.7141C17.6719 16.1056 22.2222 11.5342 27.8518 11.5342H44.9735V20.8252C44.9735 26.4549 40.4232 31.0051 34.7936 31.0051Z" fill="white"/>
<path d="M59.8942 0V40H29.1005V37.1429H37.1005C45.5873 37.1429 52.4444 30.2645 52.4444 21.7989V6.87831H24.7619C16.2751 6.87831 9.41799 13.7566 9.41799 22.2222V40H0V20.6561C0 9.24867 9.24868 0 20.6561 0H59.8942Z" fill="white"/>
<path d="M76.7421 22.4524H72.4191V19.7258H76.7421C77.4101 19.7258 77.9539 19.617 78.3734 19.3995C78.7929 19.1742 79.0997 18.8635 79.2939 18.4673C79.4881 18.0712 79.5852 17.6245 79.5852 17.1273C79.5852 16.6224 79.4881 16.1524 79.2939 15.7174C79.0997 15.2824 78.7929 14.9328 78.3734 14.6687C77.9539 14.4046 77.4101 14.2725 76.7421 14.2725H73.6309V28.4999H70.1352V11.5342H76.7421C78.0704 11.5342 79.2085 11.775 80.1562 12.2567C81.1117 12.7305 81.8419 13.3869 82.3468 14.2259C82.8518 15.0649 83.1042 16.0242 83.1042 17.104C83.1042 18.1993 82.8518 19.147 82.3468 19.9472C81.8419 20.7473 81.1117 21.3649 80.1562 21.7999C79.2085 22.2349 78.0704 22.4524 76.7421 22.4524Z" fill="white"/>
<path d="M91.4943 25.6568V20.0404C91.4943 19.6364 91.4283 19.2908 91.2962 19.0033C91.1642 18.7081 90.9583 18.479 90.6787 18.3159C90.4068 18.1527 90.0533 18.0712 89.6183 18.0712C89.2454 18.0712 88.9231 18.1372 88.6512 18.2692C88.3793 18.3935 88.1696 18.5761 88.022 18.8169C87.8744 19.0499 87.8006 19.3257 87.8006 19.6442H84.4447C84.4447 19.1082 84.569 18.5994 84.8176 18.1178C85.0662 17.6361 85.4274 17.2128 85.9012 16.8477C86.3751 16.4748 86.9383 16.1835 87.5908 15.9737C88.2511 15.764 88.9891 15.6591 89.8048 15.6591C90.7835 15.6591 91.6536 15.8223 92.4149 16.1485C93.1761 16.4748 93.7743 16.9642 94.2093 17.6167C94.6521 18.2692 94.8735 19.0849 94.8735 20.0637V25.4587C94.8735 26.1501 94.9162 26.7171 95.0017 27.1599C95.0871 27.595 95.2114 27.9756 95.3745 28.3019V28.4999H91.9837C91.8206 28.1581 91.6963 27.7309 91.6109 27.2182C91.5332 26.6977 91.4943 26.1773 91.4943 25.6568ZM91.9371 20.8211L91.9604 22.7204H90.0844C89.6416 22.7204 89.2571 22.7709 88.9308 22.8719C88.6046 22.9729 88.3366 23.1166 88.1268 23.303C87.9171 23.4817 87.7617 23.6914 87.6607 23.9323C87.5675 24.1731 87.5209 24.4372 87.5209 24.7246C87.5209 25.012 87.5869 25.2723 87.719 25.5053C87.8511 25.7306 88.0414 25.9093 88.29 26.0413C88.5385 26.1656 88.8298 26.2278 89.1639 26.2278C89.6688 26.2278 90.1077 26.1268 90.4806 25.9248C90.8535 25.7228 91.1409 25.4742 91.3429 25.179C91.5526 24.8839 91.6614 24.6042 91.6691 24.3401L92.5547 25.7617C92.4304 26.0802 92.2595 26.4103 92.042 26.7521C91.8323 27.0939 91.5642 27.4163 91.238 27.7192C90.9117 28.0144 90.5194 28.2591 90.0611 28.4533C89.6028 28.6398 89.059 28.733 88.4298 28.733C87.6297 28.733 86.9033 28.5737 86.2508 28.2553C85.606 27.929 85.0933 27.4823 84.7127 26.9152C84.3398 26.3404 84.1534 25.6879 84.1534 24.9577C84.1534 24.2974 84.2777 23.7109 84.5263 23.1982C84.7749 22.6855 85.14 22.2543 85.6216 21.9048C86.111 21.5474 86.7208 21.2794 87.451 21.1007C88.1812 20.9143 89.0279 20.8211 89.9912 20.8211H91.9371Z" fill="white"/>
<path d="M100.537 27.0784L103.881 15.8922H107.482L102.413 30.3993C102.304 30.7178 102.157 31.0596 101.97 31.4247C101.792 31.7898 101.547 32.1355 101.236 32.4617C100.933 32.7958 100.549 33.0676 100.083 33.2774C99.6242 33.4871 99.061 33.592 98.393 33.592C98.0745 33.592 97.8142 33.5726 97.6122 33.5337C97.4103 33.4949 97.1695 33.4405 96.8898 33.3706V30.912C96.9753 30.912 97.0646 30.912 97.1578 30.912C97.251 30.9197 97.3404 30.9236 97.4258 30.9236C97.8686 30.9236 98.2298 30.8731 98.5095 30.7721C98.7891 30.6712 99.0144 30.5158 99.1853 30.3061C99.3562 30.1041 99.4922 29.84 99.5931 29.5137L100.537 27.0784ZM99.1387 15.8922L101.877 25.0276L102.355 28.5815L100.071 28.8262L95.5381 15.8922H99.1387Z" fill="white"/>
<path d="M115.161 22.4524H110.838V19.7258H115.161C115.829 19.7258 116.373 19.617 116.792 19.3995C117.212 19.1742 117.519 18.8635 117.713 18.4673C117.907 18.0712 118.004 17.6245 118.004 17.1273C118.004 16.6224 117.907 16.1524 117.713 15.7174C117.519 15.2824 117.212 14.9328 116.792 14.6687C116.373 14.4046 115.829 14.2725 115.161 14.2725H112.05V28.4999H108.554V11.5342H115.161C116.489 11.5342 117.627 11.775 118.575 12.2567C119.531 12.7305 120.261 13.3869 120.766 14.2259C121.271 15.0649 121.523 16.0242 121.523 17.104C121.523 18.1993 121.271 19.147 120.766 19.9472C120.261 20.7473 119.531 21.3649 118.575 21.7999C117.627 22.2349 116.489 22.4524 115.161 22.4524Z" fill="white"/>
<path d="M130.706 25.482V15.8922H134.062V28.4999H130.904L130.706 25.482ZM131.079 22.8952L132.069 22.8719C132.069 23.7109 131.972 24.4916 131.778 25.214C131.583 25.9287 131.292 26.5501 130.904 27.0784C130.515 27.5988 130.026 28.0067 129.436 28.3019C128.845 28.5893 128.15 28.733 127.35 28.733C126.736 28.733 126.169 28.6475 125.649 28.4766C125.136 28.298 124.693 28.0222 124.32 27.6493C123.955 27.2687 123.668 26.7832 123.458 26.1928C123.256 25.5946 123.155 24.8761 123.155 24.0371V15.8922H126.511V24.0604C126.511 24.4333 126.554 24.7479 126.639 25.0043C126.732 25.2606 126.86 25.4704 127.024 25.6335C127.187 25.7966 127.377 25.9131 127.595 25.9831C127.82 26.053 128.068 26.0879 128.34 26.0879C129.032 26.0879 129.575 25.9481 129.972 25.6684C130.376 25.3888 130.659 25.0081 130.822 24.5265C130.993 24.0371 131.079 23.4934 131.079 22.8952Z" fill="white"/>
<path d="M139.504 18.6421V28.4999H136.148V15.8922H139.306L139.504 18.6421ZM143.302 15.8106L143.244 18.9218C143.081 18.8985 142.883 18.879 142.65 18.8635C142.424 18.8402 142.219 18.8286 142.032 18.8286C141.558 18.8286 141.147 18.8907 140.797 19.015C140.455 19.1315 140.168 19.3063 139.935 19.5393C139.709 19.7724 139.539 20.0559 139.422 20.39C139.313 20.724 139.251 21.1046 139.236 21.5319L138.56 21.3221C138.56 20.5065 138.641 19.7569 138.804 19.0733C138.968 18.3819 139.205 17.7798 139.515 17.2671C139.834 16.7544 140.222 16.3583 140.68 16.0786C141.139 15.799 141.663 15.6591 142.254 15.6591C142.44 15.6591 142.63 15.6747 142.824 15.7057C143.019 15.729 143.178 15.764 143.302 15.8106Z" fill="white"/>
<path d="M151.226 25.0159C151.226 24.7751 151.156 24.5576 151.017 24.3634C150.877 24.1692 150.616 23.9905 150.236 23.8274C149.863 23.6565 149.323 23.5011 148.616 23.3613C147.979 23.2215 147.385 23.0467 146.833 22.8369C146.29 22.6194 145.816 22.3592 145.412 22.0562C145.016 21.7533 144.705 21.3959 144.48 20.9842C144.254 20.5647 144.142 20.087 144.142 19.551C144.142 19.0228 144.254 18.5256 144.48 18.0595C144.713 17.5934 145.043 17.1817 145.47 16.8244C145.905 16.4593 146.433 16.1757 147.055 15.9737C147.684 15.764 148.391 15.6591 149.175 15.6591C150.271 15.6591 151.211 15.8339 151.995 16.1835C152.788 16.5331 153.394 17.0147 153.813 17.6284C154.24 18.2343 154.454 18.9257 154.454 19.7025H151.098C151.098 19.3762 151.028 19.0849 150.888 18.8286C150.756 18.5644 150.547 18.3586 150.259 18.211C149.979 18.0556 149.614 17.9779 149.164 17.9779C148.791 17.9779 148.469 18.044 148.197 18.176C147.925 18.3003 147.715 18.4712 147.567 18.6887C147.428 18.8985 147.358 19.1315 147.358 19.3879C147.358 19.5821 147.397 19.7569 147.474 19.9122C147.56 20.0598 147.696 20.1958 147.882 20.32C148.068 20.4443 148.309 20.5609 148.604 20.6696C148.907 20.7706 149.28 20.8638 149.723 20.9493C150.632 21.1357 151.444 21.3804 152.158 21.6834C152.873 21.9786 153.44 22.3825 153.86 22.8952C154.279 23.4001 154.489 24.0643 154.489 24.8877C154.489 25.4471 154.365 25.9598 154.116 26.4258C153.867 26.8919 153.51 27.2998 153.044 27.6493C152.578 27.9911 152.019 28.2591 151.366 28.4533C150.721 28.6398 149.995 28.733 149.187 28.733C148.014 28.733 147.02 28.5233 146.204 28.1038C145.396 27.6843 144.783 27.1522 144.363 26.5074C143.951 25.8549 143.745 25.1868 143.745 24.5032H146.927C146.942 24.9615 147.059 25.3305 147.276 25.6102C147.501 25.8898 147.785 26.0918 148.127 26.2161C148.476 26.3404 148.853 26.4025 149.257 26.4025C149.692 26.4025 150.053 26.3443 150.341 26.2278C150.628 26.1035 150.846 25.9403 150.993 25.7384C151.149 25.5286 151.226 25.2878 151.226 25.0159Z" fill="white"/>
<path d="M161.993 28.733C161.015 28.733 160.137 28.5776 159.36 28.2669C158.583 27.9484 157.923 27.5095 157.379 26.9502C156.843 26.3909 156.431 25.7422 156.144 25.0043C155.857 24.2585 155.713 23.4662 155.713 22.6272V22.1611C155.713 21.2056 155.849 20.3317 156.121 19.5393C156.393 18.747 156.781 18.0595 157.286 17.4769C157.799 16.8943 158.42 16.4476 159.15 16.1369C159.88 15.8184 160.704 15.6591 161.621 15.6591C162.514 15.6591 163.306 15.8067 163.998 16.1019C164.689 16.3971 165.268 16.8166 165.734 17.3604C166.208 17.9041 166.565 18.5567 166.806 19.3179C167.047 20.0715 167.167 20.9104 167.167 21.8348V23.2331H157.146V20.9959H163.869V20.7395C163.869 20.2734 163.784 19.8578 163.613 19.4927C163.45 19.1199 163.201 18.8247 162.867 18.6072C162.533 18.3897 162.106 18.2809 161.586 18.2809C161.143 18.2809 160.762 18.378 160.444 18.5722C160.125 18.7664 159.865 19.0383 159.663 19.3879C159.469 19.7374 159.321 20.1491 159.22 20.623C159.127 21.0891 159.08 21.6018 159.08 22.1611V22.6272C159.08 23.1321 159.15 23.5982 159.29 24.0255C159.438 24.4527 159.644 24.8217 159.908 25.1324C160.18 25.4432 160.506 25.684 160.886 25.8549C161.275 26.0258 161.714 26.1112 162.203 26.1112C162.809 26.1112 163.372 25.9947 163.893 25.7617C164.421 25.5208 164.875 25.1596 165.256 24.678L166.887 26.4491C166.623 26.8298 166.262 27.1949 165.804 27.5445C165.353 27.894 164.809 28.1815 164.172 28.4067C163.535 28.6242 162.809 28.733 161.993 28.733Z" fill="white"/>
</svg>
