<svg width="169" height="64" viewBox="0 0 169 64" fill="none" xmlns="http://www.w3.org/2000/svg">
<rect x="0.402832" width="168.228" height="64" rx="8" fill="white" fill-opacity="0.15"/>
<path d="M84.7996 33.5053C82.0338 33.5053 79.7795 35.6091 79.7795 38.5066C79.7795 41.3865 82.0338 43.5079 84.7996 43.5079C87.5666 43.5079 89.8209 41.3865 89.8209 38.5066C89.8197 35.6091 87.5654 33.5053 84.7996 33.5053ZM84.7996 41.5394C83.2838 41.5394 81.9773 40.2893 81.9773 38.5078C81.9773 36.7074 83.285 35.4762 84.7996 35.4762C86.3154 35.4762 87.6219 36.7074 87.6219 38.5078C87.6219 40.2882 86.3154 41.5394 84.7996 41.5394ZM73.8468 33.5053C71.081 33.5053 68.8267 35.6091 68.8267 38.5066C68.8267 41.3865 71.081 43.5079 73.8468 43.5079C76.6138 43.5079 78.8681 41.3865 78.8681 38.5066C78.8681 35.6091 76.6138 33.5053 73.8468 33.5053ZM73.8468 41.5394C72.331 41.5394 71.0245 40.2893 71.0245 38.5078C71.0245 36.7074 72.3322 35.4762 73.8468 35.4762C75.3626 35.4762 76.6691 36.7074 76.6691 38.5078C76.6703 40.2882 75.3626 41.5394 73.8468 41.5394ZM60.8197 35.0411V37.1625H65.8974C65.7457 38.3561 65.3482 39.2274 64.7415 39.8331C64.003 40.5716 62.847 41.3865 60.8197 41.3865C57.694 41.3865 55.2504 38.8664 55.2504 35.7408C55.2504 32.6151 57.694 30.095 60.8197 30.095C62.506 30.095 63.7372 30.7583 64.6462 31.6108L66.1432 30.1139C64.8732 28.9015 63.188 27.9736 60.8197 27.9736C56.5381 27.9736 52.9385 31.4591 52.9385 35.7408C52.9385 40.0224 56.5381 43.5079 60.8197 43.5079C63.1304 43.5079 64.8743 42.7494 66.2373 41.3289C67.639 39.9271 68.0753 37.9562 68.0753 36.3652C68.0753 35.8736 68.0376 35.4186 67.9612 35.0399H60.8197V35.0411ZM114.099 36.6886C113.683 35.5714 112.413 33.5053 109.818 33.5053C107.241 33.5053 105.1 35.5326 105.1 38.5066C105.1 41.3101 107.223 43.5079 110.064 43.5079C112.356 43.5079 113.682 42.1062 114.232 41.2912L112.527 40.1541C111.959 40.9878 111.182 41.537 110.064 41.537C108.946 41.537 108.15 41.0255 107.639 40.0212L114.326 37.2554L114.099 36.6886ZM107.279 38.3561C107.223 36.4228 108.776 35.4385 109.894 35.4385C110.766 35.4385 111.504 35.8748 111.751 36.4993L107.279 38.3561ZM101.843 43.2057H104.039V28.5052H101.843V43.2057ZM98.2418 34.6236H98.1666C97.6739 34.0356 96.726 33.5053 95.5336 33.5053C93.0324 33.5053 90.7405 35.7031 90.7405 38.5266C90.7405 41.33 93.0324 43.5091 95.5336 43.5091C96.7272 43.5091 97.6739 42.9787 98.1666 42.3731H98.2418V43.0928C98.2418 45.0061 97.2188 46.0291 95.5713 46.0291C94.226 46.0291 93.3922 45.0637 93.0512 44.2487L91.1379 45.0449C91.6871 46.3701 93.1453 48 95.5713 48C98.1478 48 100.327 46.4842 100.327 42.7894V33.8099H98.243V34.6236H98.2418ZM95.723 41.5394C94.2072 41.5394 92.9383 40.2693 92.9383 38.5266C92.9383 36.7638 94.2072 35.4762 95.723 35.4762C97.2188 35.4762 98.3935 36.7638 98.3935 38.5266C98.3935 40.2693 97.2188 41.5394 95.723 41.5394ZM124.394 28.5052H119.136V43.2057H121.329V37.6364H124.393C126.824 37.6364 129.216 35.876 129.216 33.0714C129.216 30.2667 126.826 28.5052 124.394 28.5052ZM124.45 35.5902H121.329V30.5513H124.45C126.091 30.5513 127.022 31.9095 127.022 33.0714C127.022 34.2097 126.091 35.5902 124.45 35.5902ZM138.011 33.4794C136.422 33.4794 134.777 34.1791 134.096 35.7302L136.044 36.5428C136.46 35.7302 137.236 35.4644 138.049 35.4644C139.184 35.4644 140.337 36.1453 140.356 37.3553V37.507C139.959 37.2801 139.107 36.9402 138.068 36.9402C135.969 36.9402 133.831 38.0938 133.831 40.2493C133.831 42.2167 135.552 43.4832 137.481 43.4832C138.955 43.4832 139.769 42.8211 140.28 42.045H140.355V43.1798H142.474V37.5435C142.475 34.9352 140.525 33.4794 138.011 33.4794ZM137.745 41.5358C137.028 41.5358 136.025 41.176 136.025 40.287C136.025 39.1522 137.274 38.7171 138.352 38.7171C139.315 38.7171 139.77 38.9252 140.356 39.2086C140.186 40.5716 139.013 41.5358 137.745 41.5358ZM150.19 33.8004L147.675 40.1741H147.6L144.989 33.8004H142.626L146.54 42.7083L144.308 47.6637H146.597L152.631 33.8004H150.19ZM130.428 43.2057H132.621V28.5052H130.428V43.2057Z" fill="white"/>
<path d="M60.436 19.9723C60.436 20.9577 60.1444 21.7421 59.5599 22.3277C58.8967 23.0239 58.0312 23.372 56.9682 23.372C55.9498 23.372 55.0831 23.0192 54.3717 22.3136C53.659 21.6069 53.3027 20.732 53.3027 19.6877C53.3027 18.6423 53.659 17.7674 54.3717 17.0618C55.0831 16.3551 55.9498 16.0023 56.9682 16.0023C57.4738 16.0023 57.9571 16.1011 58.4158 16.2975C58.8755 16.495 59.2436 16.7573 59.5188 17.0853L58.8991 17.7062C58.4322 17.1477 57.789 16.869 56.967 16.869C56.2238 16.869 55.5817 17.13 55.0396 17.6522C54.4975 18.1743 54.227 18.8528 54.227 19.6865C54.227 20.5203 54.4975 21.1988 55.0396 21.7209C55.5817 22.243 56.2238 22.5041 56.967 22.5041C57.7549 22.5041 58.4122 22.2419 58.9379 21.7162C59.2789 21.374 59.4765 20.8978 59.5294 20.2874H56.967V19.4396H60.3855C60.4207 19.6242 60.436 19.8018 60.436 19.9723Z" fill="white"/>
<path d="M65.8573 17.0254H62.6446V19.2621H65.5421V20.1099H62.6446V22.3466H65.8573V23.2144H61.7379V16.1588H65.8573V17.0254Z" fill="white"/>
<path d="M69.6801 23.2144H68.7735V17.0254H66.8026V16.1588H71.651V17.0254H69.6801V23.2144Z" fill="white"/>
<path d="M75.1588 23.2144V16.1588H76.0655V23.2144H75.1588Z" fill="white"/>
<path d="M80.0862 23.2144H79.1796V17.0254H77.2087V16.1588H82.0571V17.0254H80.0862V23.2144Z" fill="white"/>
<path d="M91.2351 22.3031C90.5413 23.0157 89.6793 23.372 88.648 23.372C87.6167 23.372 86.7548 23.0157 86.0621 22.3031C85.3683 21.5905 85.0226 20.7179 85.0226 19.6866C85.0226 18.6553 85.3683 17.7827 86.0621 17.0701C86.7548 16.3575 87.6167 16 88.648 16C89.6735 16 90.5343 16.3587 91.2304 17.0748C91.9266 17.791 92.2746 18.6612 92.2746 19.6866C92.2746 20.7179 91.9277 21.5905 91.2351 22.3031ZM86.7312 21.7116C87.2534 22.2408 87.8919 22.5042 88.648 22.5042C89.4042 22.5042 90.0439 22.2396 90.5648 21.7116C91.0869 21.1824 91.3492 20.5074 91.3492 19.6866C91.3492 18.8658 91.0869 18.1908 90.5648 17.6616C90.0439 17.1324 89.4042 16.869 88.648 16.869C87.8919 16.869 87.2534 17.1336 86.7312 17.6616C86.2103 18.1908 85.9481 18.8658 85.9481 19.6866C85.9481 20.5074 86.2103 21.1824 86.7312 21.7116Z" fill="white"/>
<path d="M93.547 23.2144V16.1588H94.6501L98.0792 21.6469H98.118L98.0792 20.2875V16.1588H98.9858V23.2144H98.0392L94.4514 17.4594H94.4125L94.4514 18.8188V23.2144H93.547Z" fill="white"/>
<path d="M60.436 19.9723C60.436 20.9577 60.1444 21.7421 59.5599 22.3277C58.8967 23.0239 58.0312 23.372 56.9682 23.372C55.9498 23.372 55.0831 23.0192 54.3717 22.3136C53.659 21.6069 53.3027 20.732 53.3027 19.6877C53.3027 18.6423 53.659 17.7674 54.3717 17.0618C55.0831 16.3551 55.9498 16.0023 56.9682 16.0023C57.4738 16.0023 57.9571 16.1011 58.4158 16.2975C58.8755 16.495 59.2436 16.7573 59.5188 17.0853L58.8991 17.7062C58.4322 17.1477 57.789 16.869 56.967 16.869C56.2238 16.869 55.5817 17.13 55.0396 17.6522C54.4975 18.1743 54.227 18.8528 54.227 19.6865C54.227 20.5203 54.4975 21.1988 55.0396 21.7209C55.5817 22.243 56.2238 22.5041 56.967 22.5041C57.7549 22.5041 58.4122 22.2419 58.9379 21.7162C59.2789 21.374 59.4765 20.8978 59.5294 20.2874H56.967V19.4396H60.3855C60.4207 19.6242 60.436 19.8018 60.436 19.9723Z" stroke="white" stroke-width="0.2" stroke-miterlimit="10"/>
<path d="M65.8573 17.0254H62.6446V19.2621H65.5421V20.1099H62.6446V22.3466H65.8573V23.2144H61.7379V16.1588H65.8573V17.0254Z" stroke="white" stroke-width="0.2" stroke-miterlimit="10"/>
<path d="M69.6801 23.2144H68.7735V17.0254H66.8026V16.1588H71.651V17.0254H69.6801V23.2144Z" stroke="white" stroke-width="0.2" stroke-miterlimit="10"/>
<path d="M75.1588 23.2144V16.1588H76.0655V23.2144H75.1588Z" stroke="white" stroke-width="0.2" stroke-miterlimit="10"/>
<path d="M80.0862 23.2144H79.1796V17.0254H77.2087V16.1588H82.0571V17.0254H80.0862V23.2144Z" stroke="white" stroke-width="0.2" stroke-miterlimit="10"/>
<path d="M91.2351 22.3031C90.5413 23.0157 89.6793 23.372 88.648 23.372C87.6167 23.372 86.7548 23.0157 86.0621 22.3031C85.3683 21.5905 85.0226 20.7179 85.0226 19.6866C85.0226 18.6553 85.3683 17.7827 86.0621 17.0701C86.7548 16.3575 87.6167 16 88.648 16C89.6735 16 90.5343 16.3587 91.2304 17.0748C91.9266 17.791 92.2746 18.6612 92.2746 19.6866C92.2746 20.7179 91.9277 21.5905 91.2351 22.3031ZM86.7312 21.7116C87.2534 22.2408 87.8919 22.5042 88.648 22.5042C89.4042 22.5042 90.0439 22.2396 90.5648 21.7116C91.0869 21.1824 91.3492 20.5074 91.3492 19.6866C91.3492 18.8658 91.0869 18.1908 90.5648 17.6616C90.0439 17.1324 89.4042 16.869 88.648 16.869C87.8919 16.869 87.2534 17.1336 86.7312 17.6616C86.2103 18.1908 85.9481 18.8658 85.9481 19.6866C85.9481 20.5074 86.2103 21.1824 86.7312 21.7116Z" stroke="white" stroke-width="0.2" stroke-miterlimit="10"/>
<path d="M93.547 23.2144V16.1588H94.6501L98.0792 21.6469H98.118L98.0792 20.2875V16.1588H98.9858V23.2144H98.0392L94.4514 17.4594H94.4125L94.4514 18.8188V23.2144H93.547Z" stroke="white" stroke-width="0.2" stroke-miterlimit="10"/>
<path fill-rule="evenodd" clip-rule="evenodd" d="M16.6582 17.5917C16.4943 17.9208 16.4028 18.3353 16.4028 18.8247V44.8319C16.4028 45.3225 16.4944 45.7369 16.6585 46.0658L30.8944 31.8279L16.6582 17.5917ZM17.3512 46.7874C17.8857 47.0581 18.6039 47.0034 19.3909 46.5571L36.1182 37.0518L31.6015 32.535L17.3512 46.7874ZM37.0208 36.5401L42.3231 33.5276C43.9659 32.5927 43.9659 31.0651 42.3231 30.1314L37.0185 27.1172L32.3085 31.8279L37.0208 36.5401ZM36.1167 26.6048L19.3909 17.1008C18.6038 16.6535 17.8856 16.5993 17.3511 16.8704L31.6014 31.1208L36.1167 26.6048Z" fill="white"/>
</svg>
