<svg width="600" height="400" viewBox="0 0 600 400" fill="none" xmlns="http://www.w3.org/2000/svg">
<path opacity="0.7" d="M544.048 259.952C544.048 259.952 563.424 142.208 493.792 78.936C432.32 23.08 338.064 4.44798 264.192 56.104C237.856 74.504 206.592 93.352 175.392 105.072C140.424 118.208 101.432 122.16 70.672 173.256C39.912 224.352 61.072 305.184 106.528 337.184C151.984 369.184 231.92 365.928 301.08 360.384C370.24 354.84 514.04 405.528 544.048 259.952Z" fill="#737373"/>
<path d="M277.584 189.592H77.424V339.232H277.584V189.592Z" stroke="white" stroke-miterlimit="10"/>
<path d="M277.584 236.208H77.424V243.024H277.584V236.208Z" stroke="white" stroke-miterlimit="10"/>
<path d="M85.5999 280.584C85.5999 280.584 95.9999 267.392 111.2 268.192C126.4 268.992 129.192 280.992 129.192 280.992H80.7999L85.5999 280.584Z" stroke="white" stroke-miterlimit="10"/>
<path d="M98.824 282.184C98.824 282.184 101.6 268.192 111.2 268.192" stroke="white" stroke-miterlimit="10"/>
<path d="M113.6 281.384C113.6 281.384 114.8 270.592 123.2 272.192" stroke="white" stroke-miterlimit="10"/>
<path d="M154.8 280.584C154.8 280.584 165.2 267.392 180.4 268.192C195.6 268.992 198.392 280.992 198.392 280.992H150L154.8 280.584Z" stroke="white" stroke-miterlimit="10"/>
<path d="M168 282.184C168 282.184 170.8 268.192 180.4 268.192" stroke="white" stroke-miterlimit="10"/>
<path d="M182.792 281.384C182.792 281.384 183.992 270.592 192.392 272.192" stroke="white" stroke-miterlimit="10"/>
<path d="M224 280.584C224 280.584 234.4 267.392 249.6 268.192C264.8 268.992 267.592 280.992 267.592 280.992H219.2L224 280.584Z" stroke="white" stroke-miterlimit="10"/>
<path d="M237.168 282.184C237.168 282.184 240 268.192 249.6 268.192" stroke="white" stroke-miterlimit="10"/>
<path d="M252 281.384C252 281.384 253.2 270.592 261.6 272.192" stroke="white" stroke-miterlimit="10"/>
<path d="M277.584 281H77.424V287.816H277.584V281Z" stroke="white" stroke-miterlimit="10"/>
<path d="M277.584 189.592H77.424V196.392H277.584V189.592Z" stroke="white" stroke-miterlimit="10"/>
<path d="M277.584 319.408H77.424V339.24H277.584V319.408Z" stroke="white" stroke-miterlimit="10"/>
<path d="M115.616 212.616H88.424V236.608H115.616V212.616Z" stroke="white" stroke-miterlimit="10"/>
<path d="M115.616 212.616H88.424V216.144H115.616V212.616Z" stroke="white" stroke-miterlimit="10"/>
<path d="M223.576 212.616H140.008V236.608H223.576V212.616Z" stroke="white" stroke-miterlimit="10"/>
<path d="M223.576 212.616H140.008V216.144H223.576V212.616Z" stroke="white" stroke-miterlimit="10"/>
<path d="M201.584 212.616H178.792V236.608H201.584V212.616Z" stroke="white" stroke-miterlimit="10"/>
<path d="M201.584 212.616H178.792V216.144H201.584V212.616Z" stroke="white" stroke-miterlimit="10"/>
<path d="M425.096 65.936H294.808V240.76H425.096V65.936Z" stroke="white" stroke-miterlimit="10"/>
<path d="M309.648 110.464H355.568" stroke="white" stroke-miterlimit="10"/>
<path d="M309.648 130.256H355.568" stroke="white" stroke-miterlimit="10"/>
<path d="M309.648 150.048H355.568" stroke="white" stroke-miterlimit="10"/>
<path d="M309.648 169.84H355.568" stroke="white" stroke-miterlimit="10"/>
<path d="M309.648 189.632H355.568" stroke="white" stroke-miterlimit="10"/>
<path d="M309.648 209.424H355.568" stroke="white" stroke-miterlimit="10"/>
<path d="M365.16 110.464H411.08" stroke="white" stroke-miterlimit="10"/>
<path d="M365.16 130.256H411.08" stroke="white" stroke-miterlimit="10"/>
<path d="M365.16 150.048H411.08" stroke="white" stroke-miterlimit="10"/>
<path d="M365.16 169.84H411.08" stroke="white" stroke-miterlimit="10"/>
<path d="M365.16 189.632H411.08" stroke="white" stroke-miterlimit="10"/>
<path d="M365.16 209.424H411.08" stroke="white" stroke-miterlimit="10"/>
<path d="M337.968 98.128C336.846 98.1804 335.733 97.9022 334.768 97.328C333.995 96.833 333.416 96.0873 333.128 95.216C332.793 94.2052 332.633 93.1446 332.656 92.08V85.6C332.633 84.5144 332.793 83.4327 333.128 82.4C333.415 81.5344 333.995 80.796 334.768 80.312C335.745 79.7715 336.853 79.5164 337.968 79.576C339.023 79.5213 340.074 79.7448 341.016 80.224C341.747 80.6284 342.314 81.2768 342.616 82.056C342.935 82.9349 343.09 83.8651 343.072 84.8V86.32H339.504V84.624C339.506 84.2335 339.482 83.8433 339.432 83.456C339.405 83.1265 339.276 82.8135 339.064 82.56C338.926 82.4311 338.761 82.3336 338.582 82.2743C338.402 82.2149 338.212 82.195 338.024 82.216C337.831 82.1995 337.636 82.2221 337.452 82.2826C337.268 82.3431 337.098 82.4402 336.952 82.568C336.722 82.8284 336.574 83.1514 336.528 83.496C336.468 83.9146 336.439 84.3371 336.44 84.76V92.976C336.432 93.4221 336.475 93.8676 336.568 94.304C336.621 94.6384 336.784 94.9455 337.032 95.176C337.315 95.3944 337.667 95.5024 338.024 95.48C338.208 95.4996 338.394 95.4789 338.57 95.4195C338.745 95.3602 338.906 95.2634 339.04 95.136C339.257 94.8715 339.391 94.5485 339.424 94.208C339.476 93.7993 339.503 93.3879 339.504 92.976V91.2H343.072V92.696C343.092 93.6486 342.94 94.5971 342.624 95.496C342.344 96.2916 341.803 96.9686 341.088 97.416C340.138 97.9483 339.055 98.1955 337.968 98.128Z" fill="white"/>
<path d="M349.176 98.104C348.348 98.1301 347.526 97.9601 346.776 97.608C346.138 97.2894 345.617 96.7769 345.288 96.144C344.934 95.3947 344.764 94.572 344.792 93.744V89.096C344.763 88.2678 344.933 87.4448 345.288 86.696C345.617 86.063 346.138 85.5505 346.776 85.232C347.521 84.8998 348.328 84.7281 349.144 84.7281C349.96 84.7281 350.767 84.8998 351.512 85.232C352.151 85.5523 352.674 86.0641 353.008 86.696C353.376 87.4408 353.552 88.2658 353.52 89.096V93.744C353.551 94.574 353.375 95.3987 353.008 96.144C352.674 96.7759 352.151 97.2877 351.512 97.608C350.782 97.9504 349.982 98.1201 349.176 98.104ZM349.176 95.832C349.295 95.8397 349.414 95.8223 349.526 95.781C349.637 95.7396 349.739 95.6752 349.824 95.592C349.985 95.4113 350.086 95.1848 350.112 94.944C350.16 94.6317 350.181 94.3159 350.176 94V88.88C350.182 88.5588 350.161 88.2376 350.112 87.92C350.079 87.6811 349.979 87.4563 349.824 87.272C349.739 87.1887 349.637 87.1243 349.526 87.083C349.414 87.0416 349.295 87.0243 349.176 87.032C349.057 87.021 348.937 87.0369 348.825 87.0784C348.713 87.1199 348.611 87.1861 348.528 87.272C348.371 87.457 348.266 87.6807 348.224 87.92C348.169 88.2371 348.143 88.5583 348.144 88.88V94C348.143 94.3164 348.17 94.6322 348.224 94.944C348.259 95.1853 348.365 95.4108 348.528 95.592C348.614 95.6813 348.719 95.7494 348.836 95.7911C348.952 95.8327 349.077 95.8467 349.2 95.832H349.176Z" fill="white"/>
<path d="M356.12 97.888V87.272H354.824V84.976H356.12V84.08C356.108 83.4029 356.189 82.7273 356.36 82.072C356.497 81.5288 356.834 81.0574 357.304 80.752C357.977 80.3958 358.736 80.2351 359.496 80.288H360.336C360.592 80.288 360.888 80.336 361.216 80.384V82.88L360.824 82.8C360.685 82.7924 360.547 82.7924 360.408 82.8C360.279 82.7876 360.149 82.8065 360.03 82.8553C359.91 82.9041 359.803 82.9812 359.72 83.08C359.548 83.3398 359.47 83.6498 359.496 83.96V84.992H361.216V87.288H359.496V97.904L356.12 97.888ZM362.44 97.888V87.272H361.144V84.976H362.44V84.08C362.428 83.4029 362.509 82.7273 362.68 82.072C362.817 81.5288 363.154 81.0574 363.624 80.752C364.297 80.3958 365.056 80.2351 365.816 80.288H366.656C366.912 80.288 367.208 80.336 367.536 80.384V82.88L367.144 82.8C367.005 82.7924 366.867 82.7924 366.728 82.8C366.599 82.7876 366.469 82.8065 366.35 82.8553C366.23 82.9041 366.123 82.9812 366.04 83.08C365.868 83.3398 365.79 83.6498 365.816 83.96V84.992H367.536V87.288H365.816V97.904L362.44 97.888Z" fill="white"/>
<path d="M373.008 98.104C372.177 98.1363 371.351 97.9574 370.608 97.584C369.973 97.2369 369.466 96.6959 369.16 96.04C368.812 95.2717 368.643 94.4349 368.664 93.592V89.264C368.638 88.4128 368.807 87.567 369.16 86.792C369.476 86.143 369.992 85.6128 370.632 85.28C371.375 84.9041 372.2 84.7225 373.032 84.752C373.865 84.7139 374.694 84.8989 375.432 85.288C376.046 85.6587 376.521 86.2209 376.784 86.888C377.092 87.6859 377.239 88.5369 377.216 89.392V91.648H372V94.152C371.99 94.4611 372.033 94.7696 372.128 95.064C372.181 95.2667 372.302 95.4449 372.472 95.568C372.641 95.6626 372.831 95.7122 373.024 95.7122C373.217 95.7122 373.407 95.6626 373.576 95.568C373.743 95.4635 373.865 95.3011 373.92 95.112C374.002 94.8535 374.04 94.583 374.032 94.312V93.088H377.16V94.16C377.195 94.7055 377.118 95.2524 376.934 95.767C376.749 96.2816 376.462 96.753 376.088 97.152C375.225 97.8601 374.12 98.2019 373.008 98.104ZM372 90H374.032V88.728C374.044 88.4226 374.006 88.1173 373.92 87.824C373.874 87.62 373.751 87.442 373.576 87.328C373.396 87.225 373.191 87.175 372.984 87.184C372.79 87.1758 372.599 87.2321 372.44 87.344C372.276 87.4859 372.161 87.6764 372.112 87.888C372.028 88.2497 371.99 88.6207 372 88.992V90Z" fill="white"/>
<path d="M383.28 98.104C382.449 98.1363 381.623 97.9574 380.88 97.584C380.245 97.2369 379.738 96.6959 379.432 96.04C379.084 95.2717 378.915 94.4349 378.936 93.592V89.264C378.91 88.4128 379.079 87.567 379.432 86.792C379.748 86.143 380.264 85.6128 380.904 85.28C381.647 84.9051 382.472 84.7235 383.304 84.752C384.137 84.7139 384.966 84.8989 385.704 85.288C386.318 85.6587 386.793 86.2209 387.056 86.888C387.364 87.6859 387.511 88.5369 387.488 89.392V91.648H382.304V94.152C382.298 94.4608 382.341 94.7687 382.432 95.064C382.488 95.2654 382.609 95.4427 382.776 95.568C382.945 95.6688 383.139 95.7187 383.336 95.712C383.527 95.717 383.716 95.667 383.88 95.568C384.046 95.4607 384.17 95.2997 384.232 95.112C384.311 94.8527 384.348 94.5828 384.344 94.312V93.088H387.464V94.16C387.503 94.7058 387.428 95.2538 387.243 95.769C387.059 96.2841 386.769 96.7552 386.392 97.152C385.961 97.5074 385.465 97.7744 384.931 97.9378C384.397 98.1011 383.836 98.1576 383.28 98.104ZM382.272 90H384.312V88.728C384.32 88.4227 384.282 88.1181 384.2 87.824C384.145 87.622 384.021 87.4462 383.848 87.328C383.668 87.225 383.463 87.175 383.256 87.184C383.062 87.177 382.871 87.2331 382.712 87.344C382.548 87.4859 382.433 87.6764 382.384 87.888C382.3 88.2497 382.262 88.6207 382.272 88.992V90Z" fill="white"/>
<path d="M534.76 124.552H434.032V240.752H534.76V124.552Z" stroke="white" stroke-miterlimit="10"/>
<path d="M445.504 140.032H481.008" stroke="white" stroke-miterlimit="10"/>
<path d="M445.504 155.336H481.008" stroke="white" stroke-miterlimit="10"/>
<path d="M445.504 170.632H481.008" stroke="white" stroke-miterlimit="10"/>
<path d="M445.504 185.936H481.008" stroke="white" stroke-miterlimit="10"/>
<path d="M445.504 201.232H481.008" stroke="white" stroke-miterlimit="10"/>
<path d="M445.504 216.536H481.008" stroke="white" stroke-miterlimit="10"/>
<path d="M488.424 140.032H523.92" stroke="white" stroke-miterlimit="10"/>
<path d="M488.424 155.336H523.92" stroke="white" stroke-miterlimit="10"/>
<path d="M488.424 170.632H523.92" stroke="white" stroke-miterlimit="10"/>
<path d="M488.424 185.936H523.92" stroke="white" stroke-miterlimit="10"/>
<path d="M488.424 201.232H523.92" stroke="white" stroke-miterlimit="10"/>
<path d="M488.424 216.536H523.92" stroke="white" stroke-miterlimit="10"/>
<path d="M140 88.104L130.312 74.264H92.392L82.704 88.104C77.5759 95.4406 74.9509 104.236 75.219 113.183C75.4871 122.13 78.6338 130.752 84.192 137.768L88.68 143.424H134.032L138.52 137.768C144.077 130.751 147.222 122.128 147.489 113.181C147.756 104.234 145.129 95.4397 140 88.104Z" fill="white" stroke="#263238" stroke-linecap="round" stroke-linejoin="round"/>
<path d="M82.688 88.104H100.496" stroke="#263238" stroke-linecap="round" stroke-linejoin="round"/>
<path d="M120.192 93.776H105.184" stroke="#263238" stroke-linecap="round" stroke-linejoin="round"/>
<path d="M146.912 120.032H111.752" stroke="#263238" stroke-linecap="round" stroke-linejoin="round"/>
<path d="M82.6799 119.56H96.2799" stroke="#263238" stroke-linecap="round" stroke-linejoin="round"/>
<path d="M129.568 112.528H118.784" stroke="#263238" stroke-linecap="round" stroke-linejoin="round"/>
<path d="M96.744 129.872H106.128" stroke="#263238" stroke-linecap="round" stroke-linejoin="round"/>
<path d="M132.376 78.776H124.408" stroke="#263238" stroke-linecap="round" stroke-linejoin="round"/>
<path d="M111.336 74.2V20.52" stroke="#737373" stroke-linecap="round" stroke-linejoin="round"/>
<path d="M312.488 88.104L302.8 74.264H264.88L255.2 88.104C250.072 95.4406 247.447 104.236 247.715 113.183C247.983 122.13 251.13 130.752 256.688 137.768L261.176 143.424H306.52L311.008 137.768C316.565 130.751 319.71 122.128 319.977 113.181C320.243 104.234 317.617 95.4397 312.488 88.104Z" fill="white" stroke="#263238" stroke-linecap="round" stroke-linejoin="round"/>
<path d="M255.192 88.104H273" stroke="#263238" stroke-linecap="round" stroke-linejoin="round"/>
<path d="M292.688 93.776H277.688" stroke="#263238" stroke-linecap="round" stroke-linejoin="round"/>
<path d="M319.416 120.032H284.248" stroke="#263238" stroke-linecap="round" stroke-linejoin="round"/>
<path d="M255.184 119.56H268.776" stroke="#263238" stroke-linecap="round" stroke-linejoin="round"/>
<path d="M302.064 112.528H291.28" stroke="#263238" stroke-linecap="round" stroke-linejoin="round"/>
<path d="M269.248 129.872H278.624" stroke="#263238" stroke-linecap="round" stroke-linejoin="round"/>
<path d="M304.88 78.776H296.912" stroke="#263238" stroke-linecap="round" stroke-linejoin="round"/>
<path d="M283.84 74.2V20.52" stroke="#737373" stroke-linecap="round" stroke-linejoin="round"/>
<path d="M506.816 280.68C508.768 281.536 513.552 281.432 513.56 281.432C513.568 281.432 512.528 278.296 512.44 278.104C511.392 275.912 508.072 272.28 505.368 272.648C504.919 272.717 504.49 272.88 504.11 273.128C503.729 273.375 503.405 273.701 503.16 274.083C502.915 274.465 502.754 274.895 502.688 275.344C502.621 275.793 502.652 276.251 502.776 276.688C503.2 278.56 505.144 279.952 506.816 280.68Z" fill="white"/>
<path d="M555.2 281.736C555.24 281.736 556.072 278.536 556.104 278.344C556.44 275.944 555.664 271.08 553.216 269.888C552.803 269.698 552.355 269.597 551.901 269.594C551.446 269.59 550.996 269.684 550.581 269.868C550.165 270.052 549.794 270.322 549.491 270.661C549.188 270.999 548.961 271.399 548.824 271.832C548.168 273.648 549 275.832 549.984 277.392C551.2 279.2 555.2 281.736 555.2 281.736Z" fill="white"/>
<path d="M508.464 294.544C510.496 294.84 514.768 293.6 515.104 293.504C515.807 295.946 516.673 298.338 517.696 300.664C518.28 302.024 518.92 303.376 519.568 304.728C519.176 304.16 518.824 303.648 518.768 303.584C517.168 301.744 513.016 299.12 510.504 300.184C510.09 300.37 509.72 300.642 509.419 300.981C509.117 301.321 508.892 301.721 508.757 302.155C508.623 302.588 508.582 303.045 508.637 303.496C508.693 303.947 508.844 304.38 509.08 304.768C510.008 306.456 512.224 307.288 514.024 307.552C515.824 307.816 519.512 306.84 520.48 306.56C520.736 307.08 520.984 307.592 521.24 308.104C522.48 310.568 523.72 313.024 524.872 315.464C525.272 316.328 525.672 317.184 526.008 318.048C525.664 317.544 525.368 317.12 525.32 317.056C523.72 315.216 519.568 312.592 517.056 313.664C516.641 313.849 516.27 314.12 515.968 314.46C515.666 314.799 515.44 315.199 515.305 315.633C515.169 316.066 515.128 316.524 515.183 316.975C515.238 317.426 515.388 317.86 515.624 318.248C516.552 319.928 518.768 320.768 520.568 321.024C522.368 321.28 525.704 320.408 526.848 320.088C527.2 320.976 527.56 321.872 527.856 322.752C528.048 323.36 528.28 323.936 528.44 324.552C528.6 325.168 528.776 325.768 528.944 326.368C529.224 327.536 529.52 328.768 529.744 329.88C529.92 330.68 530.072 331.432 530.232 332.192C529.84 331.336 529.032 329.664 528.952 329.528C527.656 327.472 523.944 324.248 521.296 324.92C520.858 325.04 520.45 325.253 520.1 325.543C519.75 325.834 519.466 326.196 519.267 326.604C519.068 327.013 518.959 327.46 518.946 327.914C518.933 328.368 519.017 328.821 519.192 329.24C519.856 331.048 521.92 332.208 523.656 332.736C525.576 333.32 529.808 332.784 530.344 332.736C530.592 334 530.832 335.232 531.032 336.4C531.176 337.2 531.296 337.952 531.416 338.688H533.112C532.96 337.888 532.8 337.008 532.624 336.104C532.368 334.816 532.072 333.448 531.752 332.04C533.03 331.534 534.275 330.949 535.48 330.288C536.88 331.8 540.456 333.568 540.92 333.792C540.432 334.992 539.944 336.152 539.472 337.24L538.832 338.688H540.616C540.728 338.416 540.848 338.144 540.96 337.888C541.456 336.68 541.968 335.368 542.48 334.024C542.992 334.128 547.184 334.984 549.144 334.544C550.92 334.144 553.064 333.136 553.856 331.384C554.061 330.979 554.177 330.535 554.197 330.082C554.217 329.629 554.141 329.177 553.973 328.756C553.805 328.334 553.549 327.953 553.223 327.638C552.897 327.323 552.507 327.081 552.08 326.928C549.496 326.056 545.552 328.992 544.08 330.928C543.992 331.04 543.208 332.4 542.728 333.264C542.936 332.712 543.136 332.184 543.344 331.608C543.76 330.488 544.144 329.352 544.544 328.136C544.728 327.536 544.904 326.936 545.088 326.328C545.272 325.72 545.408 325.072 545.568 324.44C545.92 322.968 546.208 321.456 546.456 319.92C547.448 320.28 550.96 321.52 552.784 321.376C554.608 321.232 556.872 320.576 557.928 318.976C558.191 318.606 558.373 318.185 558.46 317.74C558.548 317.295 558.54 316.836 558.438 316.395C558.335 315.953 558.139 315.538 557.864 315.178C557.588 314.817 557.239 314.519 556.84 314.304C554.44 313.048 550.072 315.352 548.344 317.072C548.24 317.176 547.144 318.552 546.552 319.312C546.696 318.392 546.848 317.48 546.96 316.536C547.296 313.84 547.552 311.088 547.816 308.352C547.896 307.512 547.992 306.68 548.08 305.84C548.432 305.976 552.576 307.52 554.616 307.376C556.432 307.248 558.704 306.576 559.76 304.976C560.024 304.606 560.207 304.184 560.296 303.738C560.384 303.292 560.377 302.833 560.274 302.39C560.171 301.947 559.975 301.531 559.699 301.17C559.422 300.809 559.072 300.511 558.672 300.296C556.272 299.048 551.904 301.352 550.184 303.072C550.048 303.2 548.472 305.176 548.096 305.696C548.288 303.856 548.504 302.024 548.784 300.224C549.16 297.792 549.694 295.387 550.384 293.024C550.544 293.08 554.872 294.712 556.96 294.568C558.776 294.44 561.048 293.768 562.104 292.168C562.367 291.798 562.549 291.377 562.636 290.932C562.724 290.487 562.716 290.028 562.614 289.587C562.511 289.145 562.315 288.73 562.04 288.37C561.764 288.009 561.415 287.711 561.016 287.496C558.616 286.24 554.248 288.544 552.528 290.264C552.408 290.376 551.208 291.864 550.648 292.608L550.512 292.536C551.26 290.179 552.216 287.892 553.368 285.704C553.992 284.488 554.656 283.36 555.32 282.28C556.12 282.672 559.648 284.4 561.544 284.472C563.44 284.544 565.696 284.136 566.92 282.648C567.228 282.309 567.46 281.908 567.6 281.471C567.74 281.035 567.785 280.574 567.731 280.118C567.677 279.663 567.526 279.225 567.288 278.833C567.05 278.442 566.731 278.106 566.352 277.848C564.088 276.336 559.512 278.152 557.608 279.664C557.504 279.752 556.544 280.704 555.856 281.408C556.168 280.928 556.472 280.424 556.784 279.968C557.92 278.248 559.072 276.768 560.104 275.424C560.696 274.68 561.24 274.016 561.76 273.4C562.72 273.4 566.56 273.264 568.264 272.472C569.968 271.68 571.792 270.256 572.192 268.376C572.31 267.934 572.332 267.473 572.256 267.022C572.18 266.571 572.009 266.142 571.754 265.763C571.498 265.384 571.165 265.064 570.775 264.825C570.386 264.586 569.95 264.433 569.496 264.376C566.784 264.088 563.56 267.8 562.568 270.024C562.488 270.216 561.488 273.376 561.544 273.376H561.6C561.088 273.96 560.544 274.584 560 275.288C558.944 276.592 557.76 278.072 556.576 279.776C555.283 281.592 554.094 283.481 553.016 285.432C551.807 287.619 550.793 289.908 549.984 292.272V292.36C549.984 291.56 549.984 289.328 549.936 289.16C549.624 286.76 547.6 282.264 544.92 281.768C544.472 281.694 544.012 281.716 543.573 281.833C543.134 281.95 542.725 282.16 542.373 282.447C542.021 282.735 541.734 283.094 541.532 283.501C541.33 283.908 541.217 284.354 541.2 284.808C541.04 286.72 542.432 288.64 543.792 289.856C545.32 291.224 549.568 292.544 549.904 292.648C549.139 295.074 548.54 297.549 548.112 300.056C547.848 301.512 547.632 302.992 547.432 304.472C547.432 303.784 547.432 303.168 547.432 303.08C547.12 300.68 545.096 296.184 542.416 295.688C541.968 295.613 541.508 295.634 541.069 295.75C540.629 295.866 540.219 296.074 539.867 296.361C539.514 296.648 539.226 297.007 539.023 297.414C538.82 297.82 538.706 298.266 538.688 298.72C538.536 300.64 539.928 302.56 541.28 303.776C542.632 304.992 546.256 306.176 547.208 306.504L546.992 308.216C546.664 310.952 546.352 313.688 545.96 316.352C545.824 317.296 545.656 318.216 545.488 319.136C545.488 318.528 545.488 318.008 545.488 317.928C545.176 315.528 543.152 311.032 540.472 310.536C540.024 310.462 539.564 310.484 539.125 310.601C538.686 310.718 538.277 310.928 537.925 311.215C537.573 311.503 537.286 311.862 537.084 312.269C536.882 312.676 536.769 313.122 536.752 313.576C536.592 315.488 537.984 317.416 539.336 318.624C540.688 319.832 543.96 320.936 545.096 321.304C544.896 322.24 544.704 323.184 544.464 324.088C544.288 324.696 544.168 325.296 543.96 325.904C543.752 326.512 543.568 327.104 543.376 327.696C542.968 328.824 542.576 329.984 542.128 331.072C541.832 331.832 541.544 332.552 541.248 333.272C541.4 332.344 541.648 330.504 541.656 330.344C541.62 328.205 541.042 326.111 539.976 324.256C539.98 324.015 539.964 323.774 539.928 323.536C539.875 323.085 539.727 322.65 539.494 322.261C539.26 321.872 538.947 321.537 538.574 321.278C538.201 321.019 537.777 320.843 537.33 320.76C536.884 320.678 536.425 320.691 535.984 320.8C533.344 321.504 531.68 326.128 531.552 328.56C531.552 328.704 531.64 330.272 531.712 331.256C531.584 330.68 531.456 330.128 531.312 329.536C531.04 328.368 530.728 327.216 530.4 325.976C530.224 325.376 530.04 324.776 529.856 324.168C529.672 323.56 529.432 322.944 529.216 322.328C528.696 320.904 528.104 319.48 527.464 318.064C528.488 317.824 532.096 316.904 533.544 315.792C534.992 314.68 536.52 312.872 536.504 310.952C536.521 310.498 536.44 310.045 536.268 309.624C536.096 309.204 535.837 308.824 535.507 308.512C535.177 308.199 534.784 307.96 534.354 307.811C533.925 307.662 533.469 307.607 533.016 307.648C530.312 307.944 527.952 312.256 527.464 314.64C527.464 314.792 527.272 316.544 527.2 317.504C526.816 316.656 526.4 315.808 526.016 314.96C524.8 312.56 523.504 310.088 522.208 307.664L521.048 305.424C521.408 305.336 525.72 304.336 527.344 303.096C528.784 301.984 530.32 300.176 530.304 298.248C530.321 297.794 530.24 297.341 530.068 296.92C529.896 296.5 529.637 296.12 529.307 295.808C528.977 295.495 528.584 295.256 528.154 295.107C527.725 294.958 527.269 294.903 526.816 294.944C524.112 295.24 521.76 299.56 521.264 301.944C521.264 302.12 521 304.64 520.976 305.288C520.12 303.64 519.28 302 518.528 300.344C517.495 298.112 516.605 295.817 515.864 293.472C516.032 293.432 520.544 292.408 522.2 291.128C523.648 290.024 525.176 288.216 525.16 286.288C525.177 285.834 525.096 285.383 524.925 284.962C524.753 284.542 524.495 284.163 524.165 283.851C523.836 283.538 523.444 283.299 523.016 283.15C522.587 283.001 522.132 282.944 521.68 282.984C518.968 283.28 516.616 287.6 516.08 289.984C516.08 290.136 515.872 292.056 515.816 292.976H515.656C514.979 290.595 514.516 288.159 514.272 285.696C514.12 284.336 514.048 283.04 514.008 281.768C514.872 281.664 518.808 281.144 520.408 280.168C522.008 279.192 523.68 277.592 523.88 275.68C523.946 275.231 523.915 274.772 523.791 274.335C523.666 273.899 523.449 273.494 523.156 273.147C522.862 272.8 522.498 272.52 522.088 272.325C521.677 272.13 521.23 272.025 520.776 272.016C518.048 272.016 515.24 276.016 514.488 278.36C514.488 278.48 514.176 279.808 513.992 280.76C513.992 280.192 513.992 279.6 513.992 279.048C513.992 276.984 514.128 275.096 514.256 273.448C514.336 272.504 514.432 271.648 514.528 270.848C515.328 270.304 518.464 268.072 519.44 266.488C520.416 264.904 521.16 262.688 520.448 260.888C520.3 260.459 520.062 260.066 519.75 259.736C519.438 259.406 519.06 259.146 518.64 258.974C518.22 258.801 517.768 258.72 517.314 258.736C516.86 258.751 516.415 258.863 516.008 259.064C513.608 260.312 512.952 265.192 513.352 267.592C513.352 267.8 514.304 270.984 514.344 270.952H514.392C514.28 271.752 514.176 272.552 514.08 273.448C513.912 275.12 513.744 277.016 513.696 279.048C513.617 281.279 513.67 283.512 513.856 285.736C514.047 288.227 514.462 290.696 515.096 293.112V293.2C514.664 292.52 513.408 290.68 513.288 290.552C511.688 288.712 507.536 286.088 505.032 287.152C504.617 287.337 504.246 287.608 503.944 287.948C503.642 288.287 503.416 288.687 503.281 289.121C503.145 289.554 503.104 290.012 503.159 290.463C503.214 290.914 503.364 291.348 503.6 291.736C504.448 293.448 506.664 294.28 508.464 294.544Z" fill="white"/>
<path d="M563.688 339.448H47.2321" stroke="#737373" stroke-miterlimit="10"/>
<path d="M563.688 367.36H47.2321" stroke="#737373" stroke-miterlimit="10"/>
<path d="M400.624 129.992C400.624 129.992 405.968 121.84 408.776 121.704C411.584 121.568 421.856 128.168 425.512 136.904C429.168 145.64 427.192 151.672 422.312 154.336C417.432 157 414.864 158.272 412.336 157.152C410.813 156.475 409.429 155.52 408.256 154.336C408.256 154.336 410.224 159.136 412.616 159.824C415.008 160.512 416.272 162.352 413.04 162.352C409.808 162.352 405.448 157.712 406.008 153.072C406.568 148.432 400.624 129.992 400.624 129.992Z" fill="#263238" stroke="#263238" stroke-miterlimit="10"/>
<path d="M337.104 295.2C337.104 295.2 310.808 324.088 309.328 325.752C308.19 326.967 306.951 328.083 305.624 329.088C305.624 329.088 286.552 323.72 282.848 323.344C279.144 322.968 269.52 331.456 267.296 334.4C266.062 335.944 265.121 337.701 264.52 339.584C266.368 340.144 287.48 340.144 292.112 340.144C296.744 340.144 312.48 337.92 313.776 337.36C315.072 336.8 344.696 320.888 344.696 320.888L343.952 295.888C343.952 295.888 340.064 294.4 337.104 295.2Z" fill="#FFFAEB" stroke="#263238" stroke-miterlimit="10"/>
<path d="M286.736 326.824C286.736 326.824 278.224 333.12 276.552 334.976C274.88 336.832 272.664 339.776 272.664 339.776" stroke="#263238" stroke-miterlimit="10"/>
<path d="M280.8 325.344C280.8 325.344 271.536 331.824 270.4 334.232C269.264 336.64 267.808 339.976 267.808 339.976" stroke="#263238" stroke-miterlimit="10"/>
<path d="M291.92 330.344C291.593 331.315 291.158 332.246 290.624 333.12C289.888 334.232 283.592 335.896 280.44 337.752C277.288 339.608 280.44 341.272 285.24 340.896C290.04 340.52 296.72 340.896 299.688 339.416C302.656 337.936 306.168 334.048 306.168 334.048" fill="#FFFAEB"/>
<path d="M291.92 330.344C291.593 331.315 291.158 332.246 290.624 333.12C289.888 334.232 283.592 335.896 280.44 337.752C277.288 339.608 280.44 341.272 285.24 340.896C290.04 340.52 296.72 340.896 299.688 339.416C302.656 337.936 306.168 334.048 306.168 334.048" stroke="#263238" stroke-miterlimit="10"/>
<path d="M340.8 282.568C340.8 282.568 336.352 281.464 336 283.128C335.648 284.792 333.04 294.608 334.152 295.928C335.264 297.248 341.928 299.632 342.856 299.448C343.784 299.264 340.8 282.568 340.8 282.568Z" fill="#92E3A9" stroke="#263238" stroke-miterlimit="10"/>
<path d="M366.144 203.12C366.144 203.12 358.144 208.832 350.504 213.52C342.864 218.208 339.936 218.8 339.936 221.76C339.936 224.72 339.304 272.064 339.304 272.064C339.304 272.064 338.456 280.52 340.784 288.344C343.112 296.168 343.744 339.488 343.744 339.488H429.976L427.016 310.744C427.016 310.744 437.168 222.608 435.016 219.016C432.864 215.424 408 202.272 408 202.272L366.144 203.12Z" fill="#FFFAEB" stroke="#263238" stroke-miterlimit="10"/>
<path d="M343.744 339.448H429.976L427.016 310.704C427.016 310.704 427.816 304.12 428.832 294.488L400.384 294.856C400.384 294.856 394.68 262.936 396.16 251.736C397.64 240.536 406.304 202.488 406.304 202.488L401.44 203.12L387.04 249.624L352.376 246.424L365.904 205L364.424 204.792C364.424 204.792 349.224 237.128 344.768 251.288C342.32 259.08 340.456 266.544 339.272 271.688V272C339.272 272 338.424 280.456 340.752 288.28C343.08 296.104 343.744 339.448 343.744 339.448Z" fill="#263238" stroke="#263238" stroke-miterlimit="10"/>
<path d="M355.376 339.448C355.968 321.408 357.648 267.8 356.808 265.264C356.232 263.56 359.288 254.784 362.208 247.352L361.408 247.272C359.008 253.392 355.344 263.336 356.072 265.512C356.8 267.688 355.512 311.912 354.6 339.448H355.376Z" fill="#828282"/>
<path d="M363.72 266.4C363.72 263.608 366.816 253.376 368.52 247.952L367.72 247.872C365.992 253.376 362.92 263.496 362.92 266.4C362.92 269.304 361.32 316 360.44 339.472H361.24C362.08 315.944 363.72 269.304 363.72 266.4Z" fill="#828282"/>
<path d="M370.288 268.392C370.536 266.408 372.504 254.12 373.424 248.392L372.624 248.32C371.696 254.088 369.744 266.32 369.496 268.32C369.2 270.664 366.112 326.136 365.376 339.472H366.176C366.912 326.208 370 270.68 370.288 268.392Z" fill="#828282"/>
<path d="M380.128 248.984L379.336 248.912L373.008 339.448H373.808L380.128 248.984Z" fill="#828282"/>
<path d="M363.952 205.88C362.88 208.176 360.216 213.928 357.152 220.808C352.352 232.696 345.952 249.04 342.144 260.408C340.968 264.72 340.016 268.632 339.304 271.712V272C339.134 274.084 339.102 276.176 339.208 278.264C339.376 275.472 339.544 273.32 339.696 272.048C340.952 261.784 363.84 206.448 364.072 205.912L363.952 205.88Z" fill="#828282"/>
<path d="M351.56 264.144C351.776 262.864 354.184 255.808 357.328 246.904L356.528 246.824C353.408 255.68 351.016 262.696 350.8 264.008C350.288 267.064 348.84 316.152 348.176 339.448H348.976C349.6 316.208 351.072 267.104 351.56 264.144Z" fill="#828282"/>
<path d="M343.44 326.008C343.992 304.024 345.096 269.208 346.64 262.856C347.44 259.52 350.464 251.04 354.04 241.472L359.296 225.384C353.616 240.144 347.104 257.504 345.864 262.664C344.576 268.008 343.6 292.344 342.992 313.064C343.2 317.552 343.32 322.04 343.44 326.008Z" fill="#828282"/>
<path d="M410.32 294.728L409.52 294.736L411.872 339.448H412.672L410.32 294.728Z" fill="#828282"/>
<path d="M383.104 293.304C382.864 280.56 385.04 259.952 386.256 249.544L385.456 249.472C384.24 259.872 382.064 280.536 382.304 293.32C382.56 307.416 383.248 330.704 383.512 339.448H384.312C384.048 330.72 383.36 307.408 383.104 293.304Z" fill="#828282"/>
<path d="M417.064 294.64L416.264 294.648L420.688 339.448H421.496L417.064 294.64Z" fill="#828282"/>
<path d="M403.008 294.816L402.2 294.832L404.144 339.448H404.944L403.008 294.816Z" fill="#828282"/>
<path d="M395.584 263.736C395.574 261.489 395.686 259.243 395.92 257.008C395.878 255.247 395.959 253.486 396.16 251.736C396.48 249.336 397.136 245.616 397.976 241.336C400.088 227.736 403.128 212.088 405.016 202.672L404.216 202.784C401.016 218.848 394.576 252.464 394.824 263.768C395.112 277.008 397.44 327.632 398.024 339.464H398.824C398.208 327.68 395.872 276.976 395.584 263.736Z" fill="#828282"/>
<path d="M390.648 254.632C392.36 246.576 395.088 230.248 397.288 216.552L395.592 222.064C393.584 234.352 391.344 247.504 389.864 254.464C387.08 267.568 389.064 323.224 389.672 339.448H390.472C389.832 323.28 387.88 267.664 390.648 254.632Z" fill="#828282"/>
<path d="M383.536 215.512C383.536 215.512 387.656 229.912 388.776 229.352C389.896 228.792 409.728 203.752 409.92 202.04C410.112 200.328 403.56 192.312 403.56 192.312C402.183 191.743 400.735 191.363 399.256 191.184C397.76 191.184 368.752 196.424 368.008 197.36C367.264 198.296 365.2 203.344 363.704 205.784C362.208 208.224 351.544 219.064 352.848 219.248C354.152 219.432 368.192 214.576 368.192 214.576L372.992 229.088C372.992 229.088 379.776 222.992 380.904 221.496C382.032 220 383.536 215.512 383.536 215.512Z" fill="#92E3A9" stroke="#263238" stroke-miterlimit="10"/>
<path d="M367.536 194.516C367.536 194.516 369.048 200.996 370.128 209.204C371.208 217.412 372.936 229.308 372.936 229.308C372.936 229.308 385.688 210.5 386.536 209.852C387.384 209.204 400.368 194.076 400.368 194.076L401.248 172.22C401.248 172.22 394.984 183.244 388.928 188.22C382.872 193.196 367.536 194.516 367.536 194.516Z" fill="#FFFAEB" stroke="#263238" stroke-miterlimit="10"/>
<path d="M389 188C389 188 382.888 197.376 378.208 201.76C373.528 206.144 370.208 208.96 370.208 208.96L368 197.36L389 188Z" fill="#263238" stroke="#263238" stroke-miterlimit="10"/>
<path d="M386.016 310.704L377.984 308.168L377.56 312.816L386.016 310.704Z" fill="#FFFAEB" stroke="#263238" stroke-miterlimit="10"/>
<path d="M379.68 303.16L378.968 312.352L377.504 331.392L376.872 339.528H354.4L353.768 331.392L352.304 312.352L351.592 303.16H379.68Z" fill="#F79009" stroke="#263238" stroke-miterlimit="10"/>
<path d="M381.656 298.832H349.096V304.872H381.656V298.832Z" fill="#FFFAEB" stroke="#263238" stroke-miterlimit="10"/>
<path d="M378.632 296.2H352.64V298.696H378.632V296.2Z" fill="#FFFAEB" stroke="#263238" stroke-miterlimit="10"/>
<path d="M378.968 312.352H352.304L353.768 331.392H377.504" fill="#FFFAEB"/>
<path d="M378.968 312.352H352.304L353.768 331.392H377.504" stroke="#263238" stroke-miterlimit="10"/>
<path d="M407.576 253.848L423.64 289.6H451.328C451.328 289.6 439.488 235.496 439.064 231.896C438.64 228.296 439.704 219.64 436.952 218.16C434.2 216.68 427.016 214.352 427.016 214.352" fill="#FFFAEB"/>
<path d="M407.576 253.848L423.64 289.6H451.328C451.328 289.6 439.488 235.496 439.064 231.896C438.64 228.296 439.704 219.64 436.952 218.16C434.2 216.68 427.016 214.352 427.016 214.352" stroke="#263238" stroke-miterlimit="10"/>
<path d="M413.28 266.528C413.28 266.528 405.88 261.672 403.768 257.656L413.28 266.528Z" fill="#FFFAEB"/>
<path d="M413.28 266.528C413.28 266.528 405.88 261.672 403.768 257.656" stroke="#263238" stroke-miterlimit="10"/>
<path d="M424.904 296.12C424.904 296.12 402.92 313.88 400.6 314.72C398.28 315.56 395.736 316.416 395.736 316.416C395.736 316.416 387.92 312.608 386.016 310.704C384.112 308.8 365.512 315.776 365.512 315.776L358.96 321.696C358.96 321.696 359.808 323.808 361.496 323.808C363.184 323.808 368.696 319.376 368.696 319.376L376.696 318.952L365.704 326.344L362.744 332.48C362.744 332.48 365.072 334.8 366.976 331.84C367.78 330.441 368.777 329.162 369.936 328.04L380.272 325.376C380.272 325.376 375.16 330.568 374.104 331.2C373.048 331.832 367.704 334.584 368.704 335.744C369.504 336.696 370.36 336.496 371.624 336.072C372.888 335.648 377.6 334.4 377.6 334.4C377.6 334.4 382.88 334.824 384.36 334.824C385.84 334.824 391.128 331.44 391.128 331.44L399.792 326.368C399.792 326.368 431.288 315.8 436.992 312.424C442.696 309.048 451.792 302.696 451.392 300.376C450.992 298.056 424.904 296.12 424.904 296.12Z" fill="#FFFAEB" stroke="#263238" stroke-miterlimit="10"/>
<path d="M377.6 334.4C377.6 334.4 384.152 332.08 386.48 329.544" stroke="#263238" stroke-miterlimit="10"/>
<path d="M420.68 288.936L422.4 292.32L423.456 296.76C423.456 296.76 429.8 298.024 435.504 299.08C441.208 300.136 453.68 303.08 453.68 303.08C454.333 302.421 454.826 301.621 455.12 300.742C455.414 299.862 455.502 298.927 455.376 298.008C454.952 294.808 455.376 287.016 454.104 284.904C452.832 282.792 426.592 283.648 420.68 288.936Z" fill="#92E3A9" stroke="#263238" stroke-miterlimit="10"/>
<path d="M423.744 292.368C423.744 292.368 429.648 288.68 441.28 288.496" stroke="#263238" stroke-miterlimit="10"/>
<path d="M447.592 292.184C448.568 292.4 449.488 292.648 450.32 292.92" stroke="#263238" stroke-miterlimit="10"/>
<path d="M436.848 290.712C436.848 290.712 440.728 290.96 444.784 291.64" stroke="#263238" stroke-miterlimit="10"/>
<path d="M359.2 174.976C358.004 174.974 356.833 175.328 355.838 175.991C354.842 176.655 354.066 177.599 353.607 178.704C353.148 179.809 353.027 181.025 353.259 182.199C353.492 183.373 354.067 184.451 354.913 185.298C355.758 186.144 356.836 186.721 358.009 186.955C359.183 187.189 360.399 187.07 361.505 186.612C362.61 186.155 363.555 185.38 364.22 184.385C364.885 183.39 365.24 182.22 365.24 181.024C365.24 179.421 364.604 177.884 363.471 176.75C362.339 175.616 360.803 174.978 359.2 174.976ZM359.2 185.44C358.326 185.442 357.472 185.184 356.744 184.7C356.017 184.215 355.45 183.526 355.115 182.719C354.779 181.913 354.69 181.024 354.86 180.167C355.029 179.31 355.449 178.523 356.067 177.904C356.684 177.286 357.471 176.864 358.328 176.693C359.184 176.522 360.073 176.609 360.88 176.943C361.688 177.277 362.378 177.843 362.863 178.57C363.349 179.296 363.608 180.15 363.608 181.024C363.608 182.194 363.144 183.316 362.317 184.144C361.491 184.972 360.37 185.438 359.2 185.44Z" stroke="#263238" stroke-miterlimit="10"/>
<path d="M353.832 156.336C353.832 156.336 355.072 173.48 356.072 178.448C357.072 183.416 367.744 197.584 369.984 198.576C372.222 199.447 374.706 199.447 376.944 198.576C379.176 197.832 394.088 188.384 395.576 184.912C397.064 181.44 399.304 176 399.304 176C399.304 176 405.76 174.504 406.504 170.776C406.943 167.982 407.026 165.143 406.752 162.328L407.496 153.384C407.496 153.384 403.768 138.48 394.08 135.744C384.392 133.008 370.472 137.728 364.76 142.704C359.048 147.68 353.832 156.336 353.832 156.336Z" fill="#FFFAEB" stroke="#263238" stroke-miterlimit="10"/>
<path d="M363.2 156C363.2 156 365.6 159.376 366.152 161.768" stroke="#263238" stroke-miterlimit="10"/>
<path d="M364.08 174.84C364.862 175.584 365.792 176.156 366.809 176.518C367.826 176.88 368.908 177.026 369.984 176.944" stroke="#263238" stroke-miterlimit="10"/>
<path d="M367.448 183.832C367.448 183.832 375.32 186.088 380.384 180.04" stroke="#263238" stroke-miterlimit="10"/>
<path d="M373.352 155.44C373.352 155.44 379.824 152.488 384.176 155.584" stroke="#263238" stroke-miterlimit="10"/>
<path d="M362.112 155.296C362.112 155.296 358.312 153.616 355.92 156.424" stroke="#263238" stroke-miterlimit="10"/>
<path d="M379.12 165.136C379.743 165.136 380.248 164.129 380.248 162.888C380.248 161.646 379.743 160.64 379.12 160.64C378.497 160.64 377.992 161.646 377.992 162.888C377.992 164.129 378.497 165.136 379.12 165.136Z" fill="#263238"/>
<path d="M361.128 162.048C361.128 163.288 360.624 164.296 360 164.296C359.376 164.296 358.872 163.288 358.872 162.048C358.872 160.808 359.376 159.8 360 159.8C360.624 159.8 361.128 160.8 361.128 162.048Z" fill="#263238"/>
<path d="M403.856 174.976C402.66 174.976 401.491 175.331 400.496 175.995C399.501 176.66 398.726 177.604 398.268 178.709C397.811 179.815 397.691 181.031 397.924 182.204C398.158 183.377 398.734 184.455 399.58 185.301C400.425 186.146 401.503 186.722 402.676 186.956C403.849 187.189 405.065 187.069 406.171 186.612C407.276 186.154 408.22 185.379 408.885 184.384C409.549 183.389 409.904 182.22 409.904 181.024C409.904 179.42 409.267 177.882 408.133 176.747C406.998 175.613 405.46 174.976 403.856 174.976ZM403.856 185.44C402.983 185.44 402.129 185.181 401.403 184.696C400.677 184.21 400.11 183.521 399.776 182.714C399.442 181.907 399.355 181.019 399.525 180.162C399.695 179.306 400.116 178.519 400.734 177.901C401.351 177.284 402.138 176.863 402.995 176.693C403.851 176.522 404.739 176.61 405.546 176.944C406.353 177.278 407.043 177.844 407.528 178.571C408.013 179.297 408.272 180.151 408.272 181.024C408.272 182.195 407.807 183.318 406.979 184.147C406.151 184.975 405.027 185.44 403.856 185.44Z" fill="#FFFAEB" stroke="#263238" stroke-miterlimit="10"/>
<path d="M384.888 141.424L353.832 156.336C353.832 156.336 343.896 149.136 343.896 142.168C343.896 135.2 360.296 120.568 375.448 119.56C390.6 118.552 394.832 121.8 399.056 125.024C403.28 128.248 416.696 139.424 414.96 147.64C413.224 155.856 406.76 162.296 406.76 162.296C406.76 162.296 406.512 157.576 403.776 158.816C401.04 160.056 401.536 163.792 399.552 163.544C397.568 163.296 396.352 159.544 396.352 159.544C396.352 159.544 383.896 148.632 384.888 141.424Z" fill="#263238" stroke="#263238" stroke-miterlimit="10"/>
<path d="M507.704 266.856H403.424V339.512H507.704V266.856Z" fill="#6E6E6E" stroke="#263238" stroke-linecap="round" stroke-linejoin="round"/>
<path d="M502.416 276.6H408.704V339.512H502.416V276.6Z" fill="white" stroke="#263238" stroke-linecap="round" stroke-linejoin="round"/>
<path d="M470.8 308.056H440.32V339.512H470.8V308.056Z" fill="#6E6E6E" stroke="#263238" stroke-linecap="round" stroke-linejoin="round"/>
<path d="M408.704 276.6L403.424 266.856H507.704L502.416 276.6H408.704Z" fill="#D1D1D1" stroke="#263238" stroke-linecap="round" stroke-linejoin="round"/>
<path d="M294.424 345.928H247.248L242.28 287.664H289.456L294.424 345.928Z" fill="white" stroke="#263238" stroke-miterlimit="10"/>
<path d="M284.864 345.928H237.688L243.016 277.128H290.192L284.864 345.928Z" fill="white" stroke="#263238" stroke-miterlimit="10"/>
<path d="M248.104 289.2C247.719 289.216 247.337 289.124 247 288.936C246.705 288.751 246.484 288.468 246.376 288.136C246.242 287.734 246.187 287.31 246.216 286.888L247.408 286.664C247.391 286.918 247.404 287.173 247.448 287.424C247.477 287.613 247.557 287.79 247.68 287.936C247.807 288.058 247.976 288.126 248.152 288.126C248.328 288.126 248.497 288.058 248.624 287.936C248.731 287.789 248.792 287.614 248.8 287.432C248.837 287.155 248.781 286.873 248.64 286.632C248.488 286.4 248.308 286.188 248.104 286L247.224 285.2C246.989 284.984 246.796 284.727 246.656 284.44C246.511 284.114 246.456 283.755 246.496 283.4C246.504 283.143 246.563 282.89 246.67 282.657C246.777 282.423 246.93 282.213 247.12 282.04C247.526 281.706 248.042 281.535 248.568 281.56C248.864 281.546 249.16 281.601 249.432 281.72C249.645 281.815 249.826 281.971 249.952 282.168C250.078 282.366 250.168 282.586 250.216 282.816C250.269 283.079 250.29 283.348 250.28 283.616L249.104 283.816C249.125 283.609 249.125 283.399 249.104 283.192C249.09 283.034 249.028 282.883 248.928 282.76C248.871 282.704 248.804 282.661 248.729 282.634C248.655 282.606 248.575 282.594 248.496 282.6C248.406 282.596 248.317 282.611 248.234 282.646C248.151 282.681 248.076 282.733 248.016 282.8C247.894 282.937 247.824 283.113 247.816 283.296C247.789 283.51 247.825 283.727 247.92 283.92C248.034 284.105 248.174 284.272 248.336 284.416L249.2 285.216C249.489 285.475 249.733 285.78 249.92 286.12C250.117 286.51 250.198 286.949 250.152 287.384C250.126 287.719 250.019 288.043 249.84 288.328C249.665 288.603 249.423 288.829 249.136 288.984C248.816 289.142 248.461 289.216 248.104 289.2Z" fill="black"/>
<path d="M252.8 289.2C252.358 289.23 251.918 289.118 251.544 288.88C251.251 288.665 251.044 288.353 250.96 288C250.863 287.578 250.833 287.143 250.872 286.712L251.08 284.048C251.108 283.593 251.205 283.145 251.368 282.72C251.506 282.36 251.759 282.057 252.088 281.856C252.485 281.633 252.937 281.528 253.392 281.552C253.805 281.528 254.217 281.617 254.584 281.808C254.86 281.98 255.062 282.248 255.152 282.56C255.252 282.93 255.284 283.315 255.248 283.696L255.2 284.32H253.888L253.936 283.68C253.952 283.488 253.952 283.296 253.936 283.104C253.935 282.956 253.884 282.812 253.792 282.696C253.727 282.638 253.651 282.594 253.568 282.568C253.486 282.542 253.398 282.534 253.312 282.544C253.123 282.533 252.935 282.59 252.784 282.704C252.667 282.824 252.585 282.973 252.544 283.136C252.5 283.339 252.471 283.545 252.456 283.752L252.2 287C252.175 287.221 252.175 287.443 252.2 287.664C252.214 287.818 252.286 287.96 252.4 288.064C252.533 288.157 252.694 288.202 252.856 288.192C252.945 288.202 253.036 288.192 253.121 288.165C253.206 288.137 253.285 288.092 253.352 288.032C253.463 287.914 253.538 287.767 253.568 287.608C253.609 287.41 253.635 287.21 253.648 287.008L253.704 286.336H255.008V286.928C254.98 287.332 254.888 287.729 254.736 288.104C254.599 288.433 254.364 288.712 254.064 288.904C253.679 289.119 253.241 289.222 252.8 289.2Z" fill="black"/>
<path d="M255.384 289.096L257.456 281.632H258.912L259.824 289.096H258.568L258.4 287.376H257.104L256.664 289.096H255.384ZM257.312 286.504H258.32L258.056 283.376L257.312 286.504Z" fill="black"/>
<path d="M260.536 289.096L261.112 281.632H262.064L263.552 285.888L263.88 281.632H265.008L264.424 289.096H263.52L262.04 284.64L261.696 289.096H260.536Z" fill="black"/>
<path d="M267.816 289.096L268.4 281.632H269.752L269.512 284.76H271.032L271.272 281.632H272.64L272.056 289.096H270.696L270.952 285.728H269.432L269.176 289.096H267.816Z" fill="black"/>
<path d="M273.2 289.096L273.776 281.632H276.912L276.84 282.592H275.072L274.904 284.736H276.296L276.224 285.688H274.832L274.64 288.16H276.424L276.352 289.096H273.2Z" fill="black"/>
<path d="M277.144 289.096L277.728 281.632H279.512C279.94 281.619 280.368 281.679 280.776 281.808C281.093 281.913 281.358 282.133 281.52 282.424C281.696 282.792 281.76 283.204 281.704 283.608C281.685 283.88 281.634 284.148 281.552 284.408C281.489 284.635 281.377 284.845 281.224 285.024C281.067 285.2 280.869 285.334 280.648 285.416L281.408 289.088H280.04L279.4 285.672H278.776L278.512 289.088L277.144 289.096ZM278.84 284.824H279.264C279.484 284.833 279.703 284.792 279.904 284.704C280.068 284.631 280.2 284.5 280.272 284.336C280.36 284.13 280.411 283.911 280.424 283.688C280.473 283.4 280.422 283.104 280.28 282.848C280.184 282.734 280.059 282.647 279.919 282.596C279.778 282.546 279.627 282.533 279.48 282.56H278.984L278.84 284.824Z" fill="black"/>
<path d="M282.296 289.096L282.88 281.632H286.008L285.936 282.592H284.168L284 284.736H285.392L285.32 285.688H283.928L283.736 288.16H285.528L285.448 289.096H282.296Z" fill="black"/>
<path d="M250.544 341.304L251.048 334.848H249.856L249.936 333.84H253.656L253.584 334.848H252.408L251.912 341.304H250.544Z" fill="black"/>
<path d="M255.744 341.408C255.311 341.432 254.88 341.33 254.504 341.112C254.206 340.912 253.99 340.611 253.896 340.264C253.787 339.838 253.755 339.397 253.8 338.96L254.016 336.168C254.04 335.721 254.143 335.283 254.32 334.872C254.472 334.533 254.731 334.252 255.056 334.072C255.45 333.864 255.891 333.765 256.336 333.784C256.774 333.758 257.209 333.858 257.592 334.072C257.885 334.256 258.101 334.541 258.2 334.872C258.319 335.293 258.357 335.733 258.312 336.168L258.096 338.968C258.068 339.415 257.963 339.853 257.784 340.264C257.627 340.613 257.371 340.908 257.048 341.112C256.649 341.328 256.198 341.431 255.744 341.408ZM255.824 340.408C256.007 340.418 256.188 340.364 256.336 340.256C256.461 340.151 256.548 340.007 256.584 339.848C256.641 339.666 256.676 339.478 256.688 339.288L256.952 335.848C256.973 335.662 256.973 335.474 256.952 335.288C256.939 335.14 256.874 335.001 256.768 334.896C256.63 334.787 256.455 334.736 256.28 334.752C256.101 334.742 255.923 334.793 255.776 334.896C255.653 334.997 255.566 335.134 255.528 335.288C255.474 335.471 255.44 335.658 255.424 335.848L255.16 339.288C255.14 339.474 255.14 339.662 255.16 339.848C255.171 340.002 255.236 340.146 255.344 340.256C255.479 340.365 255.651 340.419 255.824 340.408Z" fill="black"/>
<path d="M261.152 341.304L261.736 333.84H263.928C264.301 333.824 264.672 333.91 265 334.088C265.268 334.256 265.466 334.514 265.56 334.816C265.675 335.186 265.713 335.575 265.672 335.96C265.655 336.374 265.537 336.778 265.328 337.136C265.154 337.425 264.894 337.652 264.584 337.784C264.245 337.928 263.88 337.999 263.512 337.992H262.776L262.52 341.304H261.152ZM262.848 337.032H263.368C263.568 337.038 263.767 337.003 263.952 336.928C264.096 336.857 264.207 336.734 264.264 336.584C264.336 336.38 264.379 336.168 264.392 335.952C264.413 335.734 264.413 335.514 264.392 335.296C264.383 335.22 264.357 335.147 264.317 335.083C264.277 335.018 264.224 334.962 264.16 334.92C263.969 334.826 263.756 334.784 263.544 334.8H263.032L262.848 337.032Z" fill="black"/>
<path d="M265.24 341.304L267.312 333.84H268.8L269.712 341.304H268.448L268.288 339.584H266.96L266.52 341.304H265.24ZM267.16 338.72H268.176L267.912 335.584L267.16 338.72Z" fill="black"/>
<path d="M271.2 341.304L271.424 338.456L270.264 333.84H271.536L272.232 336.8L273.328 333.84H274.568L272.72 338.456L272.496 341.304H271.2Z" fill="black"/>
<path d="M260.616 321.64C260.68 320.736 260.752 319.824 260.824 318.912H262.176C262.176 318.448 262.248 318 262.28 317.544H260.928L261.032 316.184H263.76C263.8 315.72 263.832 315.272 263.872 314.824H265.224C265.224 315.28 265.16 315.728 265.12 316.176H266.488C266.56 315.264 266.624 314.36 266.696 313.456H270.784C270.784 313.904 270.712 314.36 270.68 314.816H272C272 314.36 272.072 313.912 272.104 313.456H270.752L270.856 312.088H268.16C268.232 311.176 268.304 310.28 268.368 309.376H264.28C264.28 309.832 264.208 310.28 264.176 310.736H261.464C261.392 311.648 261.32 312.544 261.248 313.464H262.6C262.6 313.92 262.528 314.368 262.496 314.824H261.144C261.104 315.288 261.072 315.736 261.032 316.184H259.672C259.712 315.728 259.744 315.28 259.776 314.824H255.696C255.696 314.36 255.76 313.92 255.8 313.464H259.88L260.68 302.56H262.048C261.944 303.872 261.848 305.184 261.744 306.496V306.64H263.104C263.168 305.744 263.24 304.84 263.312 303.928H264.672C264.6 304.832 264.528 305.736 264.464 306.656H265.824C265.824 307.104 265.76 307.56 265.72 308.016H272.536C272.536 308.48 272.464 308.92 272.424 309.376H273.792L273.688 310.752H272.336C272.336 311.216 272.264 311.664 272.232 312.12H273.6C273.528 313.024 273.456 313.928 273.384 314.848H274.752C274.68 315.752 274.608 316.656 274.536 317.576H273.2C273.128 318.488 273.064 319.384 272.992 320.304H274.344L274.24 321.664H276.96C276.92 322.12 276.888 322.568 276.856 323.024H272.8L272.584 325.744H271.2C271.24 325.304 271.272 324.856 271.312 324.392H268.576C268.576 323.944 268.648 323.496 268.688 323.032H267.328C267.328 322.576 267.392 322.128 267.432 321.672H270.144L270.248 320.312H263.448L263.344 321.664H260.616V321.64ZM269.104 317.552C269.104 317.104 269.176 316.648 269.208 316.2H267.856C267.816 316.656 267.784 317.104 267.752 317.552H269.104C269.104 318.008 269.04 318.456 269 318.912H271.72C271.72 318.456 271.784 318.008 271.824 317.552H269.104ZM266.4 317.6H265.048C265.048 318.056 264.976 318.504 264.944 318.952H266.296C266.304 318.456 266.336 318.016 266.4 317.6ZM269.664 310.768H271.008C271.008 310.312 271.08 309.864 271.112 309.424H269.768C269.704 309.832 269.672 310.28 269.64 310.728L269.664 310.768Z" fill="#263238"/>
<path d="M249.512 306.64C249.763 303.44 250.008 300.267 250.248 297.12H259.776C259.525 300.288 259.28 303.461 259.04 306.64H249.512ZM251.512 298.48L250.984 305.28H257.784L258.312 298.48H251.512Z" fill="#263238"/>
<path d="M278.12 306.648H268.592C268.84 303.448 269.08 300.304 269.328 297.12H278.856C278.611 300.288 278.365 303.464 278.12 306.648ZM277.392 298.48H270.592L270.064 305.28H276.864L277.392 298.48Z" fill="#263238"/>
<path d="M248.8 316.192H258.328L257.6 325.72H248.08C248.293 322.552 248.533 319.376 248.8 316.192ZM256.8 317.6H250L249.472 324.4H256.272L256.8 317.6Z" fill="#263238"/>
<path d="M262.088 302.568C262.16 301.664 262.232 300.76 262.304 299.84H260.944C261.016 298.928 261.08 298.032 261.152 297.12H267.952C267.88 298.024 267.816 298.92 267.744 299.832H266.4C266.36 300.288 266.328 300.736 266.288 301.2H267.64C267.568 302.112 267.496 303.008 267.432 303.92H266.072C266.072 303.472 266.144 303.024 266.176 302.568H264.8C264.84 302.112 264.872 301.664 264.904 301.208H263.544C263.544 301.648 263.48 302.096 263.44 302.56H262.072L262.088 302.568ZM263.688 299.832H265.04C265.04 299.376 265.112 298.928 265.144 298.48H263.8C263.736 298.928 263.704 299.376 263.664 299.832H263.688Z" fill="#263238"/>
<path d="M256.104 309.376C256.104 309.824 256.04 310.272 256 310.736H258.72C258.72 311.192 258.656 311.64 258.616 312.096H254.536C254.464 313.008 254.4 313.912 254.328 314.824H248.88L249.096 312.112H250.44C250.44 312.56 250.376 313 250.336 313.456H253.072L253.384 309.376H256.104Z" fill="#263238"/>
<path d="M260.608 321.64C260.608 322.088 260.544 322.536 260.504 323H261.864C261.864 323.456 261.792 323.904 261.76 324.36H263.12C263.12 324.824 263.048 325.272 263.016 325.728H258.944C259.048 324.368 259.152 323.016 259.256 321.64H260.608Z" fill="#263238"/>
<path d="M253.384 309.376H250.664C250.624 309.832 250.592 310.28 250.56 310.736H249.2C249.272 309.832 249.336 308.936 249.408 308.024H253.488L253.384 309.376Z" fill="#263238"/>
<path d="M277.696 312.096H276.344C276.416 311.192 276.48 310.296 276.552 309.384H275.2C275.24 308.92 275.272 308.472 275.312 308.016H278.016L277.696 312.096Z" fill="#263238"/>
<path d="M256.112 309.376L256.216 308.024H258.936C258.896 308.472 258.864 308.912 258.824 309.376H256.112Z" fill="#263238"/>
<path d="M274.768 314.832L274.872 313.472H276.224C276.224 313.92 276.16 314.368 276.12 314.824H274.768V314.832Z" fill="#263238"/>
<path d="M276 316.192H277.344C277.344 316.648 277.28 317.088 277.24 317.544H275.896C276 317.096 276 316.656 276 316.192Z" fill="#263238"/>
<path d="M265.864 306.656L265.968 305.296H267.32C267.32 305.744 267.248 306.192 267.216 306.648H265.864V306.656Z" fill="#263238"/>
<path d="M260.8 318.912H259.44C259.48 318.464 259.512 318.016 259.552 317.552H260.904C260.864 318.008 260.832 318.464 260.8 318.92V318.912Z" fill="#263238"/>
<path d="M274.344 320.28C274.384 319.832 274.416 319.384 274.448 318.928H275.808C275.768 319.368 275.736 319.816 275.704 320.28H274.344Z" fill="#263238"/>
<path d="M273.72 310.744H275.072C275.072 311.192 275.008 311.64 274.968 312.104H273.6C273.6 311.648 273.672 311.192 273.704 310.736L273.72 310.744Z" fill="#263238"/>
<path d="M265.848 324.36H264.496C264.496 323.912 264.568 323.464 264.6 323.016H265.952C265.912 323.456 265.88 323.904 265.848 324.36Z" fill="#263238"/>
<path d="M268.576 324.368C268.576 324.816 268.504 325.264 268.472 325.72H267.12C267.12 325.272 267.184 324.832 267.224 324.368H268.576Z" fill="#263238"/>
<path d="M276.64 325.728H275.296C275.296 325.272 275.36 324.832 275.4 324.376H276.744C276.712 324.8 276.68 325.272 276.64 325.728Z" fill="#263238"/>
<path d="M266.696 313.464H265.344C265.344 313.016 265.408 312.568 265.448 312.112H266.8C266.8 312.56 266.728 313.016 266.696 313.464Z" fill="#263238"/>
<path d="M256.52 303.92H252.448C252.552 302.56 252.656 301.208 252.768 299.848H256.84C256.736 301.2 256.632 302.552 256.52 303.92Z" fill="#263238"/>
<path d="M271.528 303.92L271.84 299.84H275.92L275.6 303.92H271.528Z" fill="#263238"/>
<path d="M250.976 323L251.288 318.92H255.36L255.048 323H250.976Z" fill="#263238"/>
<path d="M254.456 293.888H248.496L247.984 300.472" stroke="#92E3A9" stroke-miterlimit="10"/>
<path d="M276.152 293.888H282.12L281.608 300.472" stroke="#92E3A9" stroke-miterlimit="10"/>
<path d="M251.776 328.552H245.808L246.32 321.968" stroke="#92E3A9" stroke-miterlimit="10"/>
<path d="M273.472 328.552H279.432L279.944 321.968" stroke="#92E3A9" stroke-miterlimit="10"/>
<path d="M191.408 273.744C191.408 273.744 197.808 266.336 198.944 265.784C200.08 265.232 215.064 257.904 215.064 257.904L210.888 279.112L187.944 289.776L191.408 273.744Z" fill="#FFFAEB" stroke="#263238" stroke-miterlimit="10"/>
<path d="M241.635 235.285L221.26 231.516C219.601 231.209 218.006 232.305 217.699 233.965L208.688 282.683C208.381 284.342 209.477 285.936 211.137 286.243L231.511 290.012C233.171 290.319 234.765 289.223 235.072 287.563L244.084 238.846C244.391 237.186 243.294 235.592 241.635 235.285Z" fill="#FFFAEB" stroke="#263238" stroke-miterlimit="10"/>
<path d="M223.856 264.872L224.216 262.968L225.072 263.136C225.136 262.808 225.192 262.496 225.256 262.184L224.4 262.016C224.456 261.696 224.52 261.376 224.576 261.056L226.304 261.384C226.368 261.064 226.424 260.752 226.48 260.44L227.344 260.6C227.288 260.92 227.224 261.232 227.168 261.544L228.032 261.704L228.384 259.808H228.496L230.976 260.272C230.912 260.592 230.856 260.904 230.792 261.224L231.648 261.384C231.712 261.064 231.768 260.752 231.832 260.44L230.968 260.28C231.032 259.96 231.088 259.648 231.152 259.32L229.424 258.992L229.784 257.096L227.2 256.64C227.136 256.96 227.08 257.272 227.016 257.592L225.304 257.264L224.944 259.168L225.792 259.328C225.736 259.648 225.672 259.96 225.616 260.28L224.76 260.12C224.696 260.44 224.64 260.752 224.576 261.072L223.72 260.904C223.776 260.584 223.832 260.272 223.896 259.952L221.312 259.464C221.368 259.144 221.432 258.832 221.488 258.512L224.072 259L225.512 251.392L226.376 251.552C226.2 252.464 226.032 253.384 225.856 254.296V254.4L226.712 254.56L227.072 252.672L227.936 252.832L227.576 254.736L228.44 254.896C228.376 255.208 228.32 255.52 228.256 255.848L232.568 256.648C232.512 256.968 232.448 257.28 232.392 257.592L233.256 257.76C233.192 258.088 233.136 258.4 233.072 258.72L232.216 258.56C232.152 258.88 232.096 259.192 232.04 259.512L232.896 259.68L232.536 261.584L233.4 261.752C233.28 262.376 233.168 263.008 233.04 263.648L232.184 263.488L231.824 265.392L232.688 265.56C232.632 265.88 232.576 266.192 232.512 266.512L234.232 266.84C234.176 267.16 234.112 267.472 234.056 267.792L231.472 267.296L231.112 269.2L230.248 269.04C230.312 268.728 230.368 268.416 230.432 268.088L228.704 267.76C228.76 267.448 228.824 267.128 228.88 266.808L228.024 266.648C228.088 266.328 228.144 266.016 228.2 265.696L229.92 266.016C229.984 265.696 230.04 265.384 230.096 265.072L225.8 264.272C225.736 264.584 225.68 264.896 225.616 265.216L223.888 264.888L223.856 264.872ZM229.568 263C229.632 262.688 229.688 262.368 229.752 262.056L228.896 261.888C228.832 262.208 228.776 262.52 228.712 262.832L229.576 263C229.512 263.312 229.456 263.632 229.392 263.944L231.112 264.272C231.168 263.952 231.232 263.64 231.288 263.328L229.568 263ZM227.84 262.68L226.992 262.512C226.928 262.832 226.872 263.144 226.808 263.456L227.664 263.616C227.72 263.304 227.784 262.992 227.84 262.68ZM230.472 258.24L231.328 258.4C231.392 258.08 231.448 257.768 231.504 257.456L230.656 257.296C230.592 257.6 230.536 257.92 230.472 258.24Z" fill="#263238"/>
<path d="M218.08 252.928C218.501 250.709 218.92 248.493 219.336 246.28L225.368 247.424C224.944 249.64 224.568 251.848 224.104 254.072L218.08 252.928ZM220.024 247.392C219.72 248.992 219.424 250.592 219.128 252.144L223.424 252.944C223.728 251.344 224.024 249.744 224.328 248.192L220.024 247.392Z" fill="#263238"/>
<path d="M236.184 256.36L230.152 255.2C230.576 252.976 230.992 250.768 231.408 248.544L237.44 249.688C237.016 251.928 236.6 254.136 236.184 256.36ZM236.4 250.496L232.096 249.696C231.792 251.296 231.493 252.88 231.2 254.448L235.504 255.248C235.803 253.664 236.101 252.08 236.4 250.496Z" fill="#263238"/>
<path d="M216.8 259.6L222.824 260.744C222.408 262.96 221.984 265.176 221.568 267.392L215.536 266.256C216 264.04 216.4 261.824 216.8 259.6ZM221.784 261.536L217.48 260.736C217.176 262.336 216.877 263.917 216.584 265.48L220.88 266.28C221.208 264.696 221.504 263.12 221.808 261.536H221.784Z" fill="#263238"/>
<path d="M226.4 251.552L226.76 249.648L225.904 249.488C226.024 248.848 226.144 248.224 226.264 247.592L230.568 248.392L230.208 250.288L229.352 250.128C229.296 250.448 229.232 250.76 229.176 251.08L230.024 251.24L229.664 253.144L228.808 252.976C228.872 252.664 228.928 252.352 228.992 252.032L228.128 251.872L228.304 250.92L227.448 250.76C227.384 251.072 227.328 251.384 227.264 251.704L226.4 251.544V251.552ZM227.624 249.808L228.48 249.968C228.544 249.648 228.6 249.336 228.656 249.024L227.808 248.864L227.624 249.808Z" fill="#263238"/>
<path d="M222.024 255.656C221.968 255.968 221.904 256.28 221.848 256.608L223.568 256.936C223.512 257.248 223.448 257.56 223.392 257.88L220.808 257.392L220.448 259.296L217 258.64L217.36 256.752L218.216 256.912L218.04 257.848L219.768 258.176C219.944 257.232 220.128 256.28 220.304 255.328L222.032 255.656H222.024Z" fill="#263238"/>
<path d="M223.856 264.872C223.8 265.184 223.736 265.504 223.68 265.824L224.536 265.984C224.48 266.304 224.416 266.616 224.36 266.936L225.216 267.096C225.16 267.424 225.096 267.736 225.04 268.048L222.464 267.56C222.64 266.616 222.816 265.672 223 264.712L223.856 264.872Z" fill="#263238"/>
<path d="M220.304 255.328L218.584 255C218.52 255.32 218.464 255.632 218.4 255.952L217.544 255.784L217.904 253.896L220.48 254.384C220.424 254.696 220.36 255.016 220.304 255.328Z" fill="#263238"/>
<path d="M235.464 260.168L234.608 260.008C234.728 259.376 234.84 258.744 234.96 258.112L234.104 257.944C234.168 257.624 234.224 257.312 234.28 257L236 257.32C235.816 258.272 235.64 259.2 235.464 260.168Z" fill="#263238"/>
<path d="M222.032 255.656C222.088 255.344 222.144 255.032 222.208 254.712L223.928 255.04C223.864 255.344 223.808 255.664 223.744 255.984L222.024 255.656H222.032Z" fill="#263238"/>
<path d="M233.384 261.752C233.44 261.44 233.496 261.12 233.56 260.8L234.416 260.968C234.36 261.28 234.296 261.592 234.24 261.912L233.376 261.752H233.384Z" fill="#263238"/>
<path d="M234.064 262.872L234.92 263.032C234.856 263.344 234.8 263.656 234.744 263.976L233.888 263.808C233.944 263.496 234.008 263.2 234.064 262.872Z" fill="#263238"/>
<path d="M228.424 254.896L228.6 253.952L229.464 254.112C229.4 254.424 229.344 254.736 229.28 255.056L228.424 254.896Z" fill="#263238"/>
<path d="M224.216 262.968L223.36 262.808C223.416 262.488 223.48 262.176 223.536 261.856L224.4 262.024C224.336 262.344 224.272 262.664 224.216 262.976V262.968Z" fill="#263238"/>
<path d="M232.664 265.6C232.72 265.28 232.776 264.968 232.84 264.648L233.696 264.816C233.64 265.12 233.576 265.432 233.52 265.76L232.656 265.592L232.664 265.6Z" fill="#263238"/>
<path d="M233.056 258.736L233.912 258.896C233.856 259.208 233.8 259.52 233.736 259.848L232.88 259.68L233.056 258.72V258.736Z" fill="#263238"/>
<path d="M226.944 267.424L226.088 267.264C226.144 266.952 226.208 266.64 226.264 266.32L227.12 266.48C227.064 266.792 227 267.104 226.944 267.424Z" fill="#263238"/>
<path d="M228.672 267.752C228.608 268.072 228.552 268.384 228.488 268.704L227.632 268.544C227.696 268.232 227.752 267.92 227.816 267.592L228.672 267.76V267.752Z" fill="#263238"/>
<path d="M233.664 269.688L232.8 269.52C232.856 269.208 232.92 268.896 232.976 268.584L233.832 268.744C233.776 269.056 233.72 269.368 233.664 269.688Z" fill="#263238"/>
<path d="M228.384 259.816L227.528 259.656C227.592 259.336 227.648 259.024 227.712 258.712L228.568 258.872C228.504 259.184 228.448 259.504 228.384 259.816Z" fill="#263238"/>
<path d="M222.744 251.848L220.168 251.36C220.344 250.408 220.52 249.464 220.704 248.512L223.28 249C223.104 249.944 222.92 250.896 222.744 251.848Z" fill="#263238"/>
<path d="M232.24 253.64C232.416 252.688 232.6 251.744 232.776 250.8L235.352 251.288C235.176 252.232 234.992 253.176 234.816 254.128L232.24 253.64Z" fill="#263238"/>
<path d="M217.648 264.68C217.824 263.728 218 262.784 218.184 261.832L220.76 262.32C220.584 263.264 220.4 264.216 220.224 265.168L217.648 264.68Z" fill="#263238"/>
<path d="M222.272 244.504L218.496 243.784L217.624 248.384" stroke="#FDB022" stroke-miterlimit="10"/>
<path d="M236 247.104L239.768 247.816L238.904 252.408" stroke="#FDB022" stroke-miterlimit="10"/>
<path d="M217.688 268.704L213.92 267.984L214.784 263.392" stroke="#FDB022" stroke-miterlimit="10"/>
<path d="M231.416 271.304L235.192 272.016L236.064 267.424" stroke="#FDB022" stroke-miterlimit="10"/>
<path d="M243.4 242.672L244.104 238.84C244.179 238.445 244.175 238.04 244.092 237.647C244.01 237.253 243.85 236.88 243.622 236.549C243.395 236.218 243.104 235.936 242.766 235.718C242.429 235.5 242.051 235.351 241.656 235.28L221.28 231.512C220.483 231.365 219.661 231.54 218.993 231.999C218.326 232.458 217.868 233.163 217.72 233.96L217.008 237.792L243.4 242.672Z" fill="#263238" stroke="#263238" stroke-miterlimit="10"/>
<path d="M209.152 280.312L208.712 282.672C208.64 283.07 208.646 283.478 208.732 283.873C208.818 284.268 208.982 284.642 209.213 284.974C209.444 285.306 209.739 285.588 210.08 285.806C210.421 286.023 210.802 286.171 211.2 286.24L231.576 290.008C231.971 290.081 232.377 290.075 232.769 289.991C233.162 289.907 233.535 289.746 233.865 289.518C234.196 289.29 234.478 288.999 234.696 288.662C234.914 288.324 235.064 287.947 235.136 287.552L235.576 285.152L209.152 280.312Z" fill="#263238" stroke="#263238" stroke-miterlimit="10"/>
<path d="M202.528 271C202.528 271 209.664 272.064 211.864 272.472C214.064 272.88 222.888 270.216 223.64 271.616C224.392 273.016 223.296 274.816 221.24 276.232C219.184 277.648 210.84 279.112 210.84 279.112C209.046 281.984 206.326 284.158 203.128 285.272C198.032 286.872 189.992 286.632 189.992 286.632" fill="#FFFAEB"/>
<path d="M202.528 271C202.528 271 209.664 272.064 211.864 272.472C214.064 272.88 222.888 270.216 223.64 271.616C224.392 273.016 223.296 274.816 221.24 276.232C219.184 277.648 210.84 279.112 210.84 279.112C209.046 281.984 206.326 284.158 203.128 285.272C198.032 286.872 189.992 286.632 189.992 286.632" stroke="#263238" stroke-miterlimit="10"/>
<path d="M86.0479 367.36H206.048C206.336 363.448 207.368 342.752 199.776 314.616C191.328 283.304 191.328 253.016 191.328 253.016C191.328 253.016 197.048 240.096 189.84 229.408C182.632 218.72 173.16 215.688 173.16 215.688C173.16 215.688 121.264 199.592 111.56 200.832C111.56 200.832 87.2079 221.456 85.2239 222.704C83.2399 223.952 77.7679 232.392 77.7679 237.36C77.7679 242.328 87.4559 312.152 88.7039 321.096C89.8559 329.312 86.5759 362.216 86.0479 367.36Z" fill="#FDB022" stroke="#263238" stroke-miterlimit="10"/>
<path d="M102.624 245.04C102.624 245.04 112.312 282.808 122.504 296.472" stroke="#263238" stroke-miterlimit="10"/>
<path d="M112.8 283.8C112.8 283.8 119.008 296.72 125.968 302.688" stroke="#263238" stroke-miterlimit="10"/>
<path d="M200.192 136.8C200.192 136.8 199.944 152.8 198.424 154.728C196.904 156.656 194.52 159.584 194.656 161.192C194.792 162.8 198.216 172.736 198.392 174.12C198.568 175.504 192.84 178.2 192.84 178.2C192.84 178.2 183.48 196.864 182.52 198.256C181.56 199.648 179.32 199.432 176.752 198.912C174.184 198.392 169.552 195.44 169.552 195.44L160.536 212.368C160.536 212.368 145.992 200.44 139.44 195.976C132.888 191.512 124.8 186.936 124.8 186.936L133.256 175.088C133.256 175.088 137.2 170.008 138.24 161.416C139.28 152.824 141.568 141.32 159.576 132.504C177.584 123.688 195.288 133.096 200.192 136.8Z" fill="#FFFAEB" stroke="#263238" stroke-miterlimit="10"/>
<path d="M186.96 136.392C186.96 136.392 187.88 144.248 186.576 146.248C185.272 148.248 174.12 149.856 174.08 151.2C174.04 152.544 174.08 159.312 172.048 159.144C170.016 158.976 169.528 159.312 168.968 158.752C168.408 158.192 169.528 152.544 164.84 153.416C160.152 154.288 155.816 161.32 155.904 165.416C155.992 169.512 159.688 172.48 159.688 172.48C159.688 172.48 159.296 174.44 151.576 176.96C143.856 179.48 134.736 177.664 133.216 175.104C131.696 172.544 127.208 139.608 126.256 130.848C125.304 122.088 132.576 105.936 145.288 102.152C158 98.368 172.928 100.448 172.928 100.448C172.928 100.448 180.608 95.888 187.328 98.576C194.048 101.264 195.576 109.24 195.576 109.24C195.576 109.24 208.072 108.8 211.424 116.912C214.776 125.024 212.296 134.008 207.92 137.872C203.544 141.736 195.984 137.752 192.64 136.408C191.752 135.99 190.783 135.771 189.802 135.769C188.82 135.766 187.85 135.979 186.96 136.392Z" fill="#263238" stroke="#263238" stroke-miterlimit="10"/>
<path d="M198.4 154.704C198.4 154.704 194.752 150.36 190.72 154.752" stroke="#263238" stroke-miterlimit="10"/>
<path d="M192.8 160.456C192.544 161.712 191.808 162.624 191.152 162.496C190.496 162.368 190.16 161.232 190.408 159.976C190.656 158.72 191.4 157.808 192.056 157.936C192.712 158.064 193.016 159.2 192.8 160.456Z" fill="#263238"/>
<path d="M187.2 182.696C187.2 182.696 184.296 183.696 181.904 179.832" stroke="#263238" stroke-miterlimit="10"/>
<path d="M169.544 195.416C167.666 193.58 166.11 191.441 164.944 189.088C163.344 185.616 161.744 182.36 161.744 182.36C161.744 182.36 161.92 195.032 162.4 198.288C162.802 200.632 163.399 202.939 164.184 205.184L169.544 195.416Z" fill="#263238" stroke="#263238" stroke-miterlimit="10"/>
<path d="M118.512 191.768C118.512 191.768 121.384 186.456 122.936 186.24C124.488 186.024 149.04 192.208 154.576 195.312C160.112 198.416 165.64 206.152 165.64 206.152L118.512 191.768Z" fill="#FFFAEB" stroke="#263238" stroke-miterlimit="10"/>
<path d="M117.6 189.776C117.6 189.776 131.536 193.32 146.36 197.776C161.184 202.232 167.384 206.848 168.272 208.176C169.16 209.504 173.136 215.696 173.136 215.696C173.136 215.696 160.744 213.296 137.512 207.952C114.28 202.608 109.632 201.976 109.632 201.976C109.632 201.976 116.52 191.544 117.6 189.776Z" fill="#FDB022" stroke="#263238" stroke-miterlimit="10"/>
<path d="M144.12 253.24C144.12 253.24 153.064 304.44 153.808 310.392C154.552 316.344 153.064 331.992 153.808 344.184C154.372 352.025 155.688 359.794 157.736 367.384H201.736C201.368 365.32 197.736 344.632 197.048 334.016C196.296 322.816 196.048 280.344 194.56 269.912C193.072 259.48 193.6 252.992 193.6 252.992C193.6 252.992 196.8 236.344 193.104 228.392C189.408 220.44 174.464 217.992 171.504 217.704" fill="#FDB022"/>
<path d="M144.12 253.24C144.12 253.24 153.064 304.44 153.808 310.392C154.552 316.344 153.064 331.992 153.808 344.184C154.372 352.025 155.688 359.794 157.736 367.384H201.736C201.368 365.32 197.736 344.632 197.048 334.016C196.296 322.816 196.048 280.344 194.56 269.912C193.072 259.48 193.6 252.992 193.6 252.992C193.6 252.992 196.8 236.344 193.104 228.392C189.408 220.44 174.464 217.992 171.504 217.704" stroke="#263238" stroke-miterlimit="10"/>
<path d="M165.176 225.144C165.176 225.144 152.8 234.448 149.672 253.056L165.176 225.144Z" fill="#FDB022"/>
<path d="M165.176 225.144C165.176 225.144 152.8 234.448 149.672 253.056" stroke="#263238" stroke-miterlimit="10"/>
</svg>
