<svg width="32" height="56" viewBox="0 0 32 56" fill="none" xmlns="http://www.w3.org/2000/svg">
<path d="M14.3213 15.0732H15.6309C16.0938 15.0732 16.4746 14.9941 16.7734 14.8359C17.0781 14.6719 17.3037 14.4492 17.4502 14.168C17.6025 13.8809 17.6787 13.5498 17.6787 13.1748C17.6787 12.8057 17.6113 12.4863 17.4766 12.2168C17.3418 11.9414 17.1367 11.7305 16.8613 11.584C16.5918 11.4316 16.2461 11.3555 15.8242 11.3555C15.4844 11.3555 15.1709 11.4229 14.8838 11.5576C14.6025 11.6924 14.377 11.8857 14.207 12.1377C14.043 12.3838 13.9609 12.6797 13.9609 13.0254H11.6318C11.6318 12.334 11.8135 11.7275 12.1768 11.2061C12.5459 10.6787 13.0439 10.2656 13.6709 9.9668C14.2979 9.66797 14.998 9.51855 15.7715 9.51855C16.6152 9.51855 17.3535 9.65918 17.9863 9.94043C18.625 10.2158 19.1201 10.623 19.4717 11.1621C19.8291 11.7012 20.0078 12.3691 20.0078 13.166C20.0078 13.5469 19.917 13.9277 19.7354 14.3086C19.5596 14.6836 19.2988 15.0234 18.9531 15.3281C18.6133 15.627 18.1943 15.8701 17.6963 16.0576C17.2041 16.2393 16.6387 16.3301 16 16.3301H14.3213V15.0732ZM14.3213 16.8662V15.627H16C16.7207 15.627 17.3447 15.7119 17.8721 15.8818C18.4053 16.0459 18.8447 16.2803 19.1904 16.585C19.5361 16.8838 19.791 17.2324 19.9551 17.6309C20.125 18.0293 20.21 18.457 20.21 18.9141C20.21 19.5117 20.0986 20.0449 19.876 20.5137C19.6533 20.9766 19.3398 21.3691 18.9355 21.6914C18.5371 22.0137 18.0684 22.2598 17.5293 22.4297C16.9902 22.5938 16.4072 22.6758 15.7803 22.6758C15.2354 22.6758 14.7051 22.6025 14.1895 22.4561C13.6797 22.3037 13.2197 22.0781 12.8096 21.7793C12.3994 21.4746 12.0742 21.0938 11.834 20.6367C11.5938 20.1738 11.4736 19.6377 11.4736 19.0283H13.8027C13.8027 19.3799 13.8877 19.6934 14.0576 19.9688C14.2334 20.2441 14.4736 20.4609 14.7783 20.6191C15.0889 20.7715 15.4375 20.8477 15.8242 20.8477C16.252 20.8477 16.6182 20.7715 16.9229 20.6191C17.2334 20.4609 17.4707 20.2383 17.6348 19.9512C17.7988 19.6582 17.8809 19.3096 17.8809 18.9053C17.8809 18.4248 17.79 18.0352 17.6084 17.7363C17.4268 17.4375 17.166 17.2178 16.8262 17.0771C16.4922 16.9365 16.0938 16.8662 15.6309 16.8662H14.3213Z" fill="#F79009"/>
<rect x="0.5" y="0.5" width="31" height="31" rx="15.5" stroke="#F79009"/>
<rect x="15.5" y="32" width="1" height="24" fill="#F79009"/>
</svg>
